<?xml version="1.0" encoding="UTF-8" standalone="no"?>
<!DOCTYPE svg PUBLIC "-//W3C//DTD SVG 1.1//EN" "http://www.w3.org/Graphics/SVG/1.1/DTD/svg11.dtd">
<!--Generated by Intaglio, www.PurgatoryDesign.com-->
<svg version="1.1" viewBox="0,16,135,135" width="135" height="135"
    xmlns="http://www.w3.org/2000/svg"
    xmlns:xlink="http://www.w3.org/1999/xlink">
    <defs>
        <style>.cls-1{fill:url(#linear-gradient);}.cls-2{fill:url(#linear-gradient-2);}.cls-3{fill:url(#linear-gradient-3);}.cls-4{fill:#84aff1;}.cls-5{fill:#3865ab;}</style>
        <linearGradient id="linear-gradient" x1="50" y1="20" x2="100" y2="20" gradientUnits="userSpaceOnUse">
            <stop offset="0" stop-color="#f2cc0c"/>
            <stop offset="1" stop-color="#ff9830"/>
        </linearGradient>
        <linearGradient id="linear-gradient-2" x1="110" y1="20" x2="134" y2="20" xlink:href="#linear-gradient"/>
        <linearGradient id="linear-gradient-3" x1="82" y1="20" x2="106" y2="20" xlink:href="#linear-gradient"/>
    </defs>
    <g>
        <path class="cls-1" d="M54.4067,17.3022 L54.4067,28.7922 L78.3367,28.7922 L78.3367,16.3022 L55.4067,16.3022 L55.4067,16.3022 C54.8544,16.3022,54.4067,16.7499,54.4067,17.3022 Z"/>
        <path class="cls-2" d="M110.277,28.7922 L134.207,28.7922 L134.207,17.3022 L134.207,17.3022 C134.207,16.7499,133.759,16.3022,133.207,16.3022 L110.277,16.3022 Z"/>
        <path class="cls-3" d="M82.3367,16.3022 L106.267,16.3022 L106.267,28.7922 L82.3367,28.7922 L82.3367,16.3022 Z"/>
        <path class="cls-4" d="M82.3367,32.7922 L106.267,32.7922 L106.267,45.2822 L82.3367,45.2822 L82.3367,32.7922 Z"/>
        <path class="cls-4" d="M54.4067,32.7922 L78.3367,32.7922 L78.3367,45.2822 L54.4067,45.2822 L54.4067,32.7922 Z"/>
        <path class="cls-4" d="M110.277,32.7922 L134.207,32.7922 L134.207,45.2822 L110.277,45.2822 L110.277,32.7922 Z"/>
        <path class="cls-5" d="M110.277,49.2922 L134.207,49.2922 L134.207,61.7922 L110.277,61.7922 L110.277,49.2922 Z"/>
        <path class="cls-5" d="M82.3367,49.2922 L106.267,49.2922 L106.267,61.7922 L82.3367,61.7922 L82.3367,49.2922 Z"/>
        <path class="cls-5" d="M54.4067,49.2922 L78.3367,49.2922 L78.3367,61.7922 L54.4067,61.7922 L54.4067,49.2922 Z"/>
        <path class="cls-4" d="M82.3367,65.7822 L106.267,65.7822 L106.267,78.2722 L82.3367,78.2722 L82.3367,65.7822 Z"/>
        <path class="cls-4" d="M110.277,65.7822 L134.207,65.7822 L134.207,78.2722 L110.277,78.2722 L110.277,65.7822 Z"/>
        <path class="cls-4" d="M54.4067,65.7822 L78.3367,65.7822 L78.3367,78.2722 L54.4067,78.2722 L54.4067,65.7822 Z"/>
        <path class="cls-5" d="M82.3367,82.2822 L106.267,82.2822 L106.267,94.7722 L82.3367,94.7722 L82.3367,82.2822 Z"/>
        <path class="cls-5" d="M134.207,93.7722 L134.207,82.3022 L110.277,82.3022 L110.277,94.7722 L133.207,94.7722 L133.207,94.7722 C133.759,94.7722,134.207,94.3245,134.207,93.7722 Z"/>
        <path class="cls-5" d="M78.3367,94.7722 L78.3367,82.3022 L54.4067,82.3022 L54.4067,93.7722 L54.4067,93.7722 C54.4067,94.3245,54.8544,94.7722,55.4067,94.7722 Z"/>
    </g>
    <path fill="#fff" d="M-111.392,174.241 L-95.476,179.015 L-95.6754,180.01 L-112.585,177.225 L-111.392,174.241 Z"/>
    <path fill="#fffffe" d="M-74.9857,241.484 C-74.9857,241.484,-89.3096,259.986,-88.7135,260.781 C-88.1152,261.576,-85.1303,257.596,-84.3359,257.002 C-83.5415,256.405,-80.7549,256.405,-80.7549,256.405 C-80.7549,256.405,-74.1914,247.85,-73.593,248.048 C-72.9958,248.249,-70.4098,250.834,-70.4098,250.834 C-70.4098,250.834,-77.5717,257.002,-77.174,257.798 C-76.7751,258.594,-75.1841,258.594,-75.1841,258.594 C-75.1841,258.594,-68.2216,254.018,-67.6232,254.414 C-67.0272,254.813,-65.0395,256.802,-65.0395,256.802 C-65.0395,256.802,-70.2115,261.18,-70.2115,261.974 C-70.2115,262.771,-63.8462,260.781,-63.8462,260.781 C-63.8462,260.781,-61.4586,263.764,-62.0546,264.164 C-62.6507,264.56,-65.2378,265.756,-65.2378,265.756 L-64.4412,266.949 L-61.258,266.55 L-60.8614,268.738 L-62.4513,269.535 L-62.4513,271.126 L-59.8664,271.327 L-59.6681,274.111 L-61.0597,273.91 L-61.0597,275.503 L-59.8664,275.702 L-60.263,278.486 L-58.6731,278.684 C-58.6731,278.684,-58.2731,266.55,-59.8664,260.581 C-61.4586,254.614,-71.8014,241.881,-74.9857,241.484"/>
    <path fill="#fff" d="M-320.703,120.313 C-320.703,120.313,-308.766,108.973,-305.781,107.581 C-302.797,106.188,-300.013,105.79,-299.217,104.995 C-298.421,104.199,-300.212,100.419,-300.81,100.419 C-301.406,100.419,-307.572,104.795,-308.567,106.984 C-309.562,109.172,-321.697,118.721,-321.299,119.518"/>
    <path fill="#fff" d="M-318.713,142.793 L-302.797,147.567 L-302.997,148.562 L-319.906,145.778 L-318.713,142.793 Z"/>
    <path fill="#fffffe" d="M-282.307,210.037 C-282.307,210.037,-296.631,228.539,-296.035,229.333 C-295.436,230.129,-292.452,226.149,-291.657,225.554 C-290.863,224.958,-288.076,224.958,-288.076,224.958 C-288.076,224.958,-281.513,216.402,-280.914,216.6 C-280.317,216.801,-277.731,219.387,-277.731,219.387 C-277.731,219.387,-284.893,225.554,-284.495,226.351 C-284.096,227.146,-282.505,227.146,-282.505,227.146 C-282.505,227.146,-275.543,222.57,-274.944,222.967 C-274.348,223.366,-272.361,225.354,-272.361,225.354 C-272.361,225.354,-277.533,229.732,-277.533,230.526 C-277.533,231.323,-271.167,229.333,-271.167,229.333 C-271.167,229.333,-268.78,232.317,-269.376,232.717 C-269.972,233.112,-272.559,234.308,-272.559,234.308 L-271.762,235.501 L-268.579,235.102 L-268.183,237.291 L-269.772,238.087 L-269.772,239.678 L-267.188,239.879 L-266.989,242.663 L-268.381,242.463 L-268.381,244.056 L-267.188,244.254 L-267.584,247.038 L-265.994,247.237 C-265.994,247.237,-265.594,235.102,-267.188,229.134 C-268.78,223.166,-279.123,210.433,-282.307,210.037"/>
    <path fill="#fff" d="M-320.703,120.313 C-320.703,120.313,-308.766,108.973,-305.781,107.581 C-302.797,106.188,-300.013,105.79,-299.217,104.995 C-298.421,104.199,-300.212,100.419,-300.81,100.419 C-301.406,100.419,-307.572,104.795,-308.567,106.984 C-309.562,109.172,-321.697,118.721,-321.299,119.518"/>
    <path fill="#fff" d="M-318.713,142.793 L-302.797,147.567 L-302.997,148.562 L-319.906,145.778 L-318.713,142.793 Z"/>
    <path fill="#fffffe" d="M-282.307,210.037 C-282.307,210.037,-296.631,228.539,-296.035,229.333 C-295.436,230.129,-292.452,226.149,-291.657,225.554 C-290.863,224.958,-288.076,224.958,-288.076,224.958 C-288.076,224.958,-281.513,216.402,-280.914,216.6 C-280.317,216.801,-277.731,219.387,-277.731,219.387 C-277.731,219.387,-284.893,225.554,-284.495,226.351 C-284.096,227.146,-282.505,227.146,-282.505,227.146 C-282.505,227.146,-275.543,222.57,-274.944,222.967 C-274.348,223.366,-272.361,225.354,-272.361,225.354 C-272.361,225.354,-277.533,229.732,-277.533,230.526 C-277.533,231.323,-271.167,229.333,-271.167,229.333 C-271.167,229.333,-268.78,232.317,-269.376,232.717 C-269.972,233.112,-272.559,234.308,-272.559,234.308 L-271.762,235.501 L-268.579,235.102 L-268.183,237.291 L-269.772,238.087 L-269.772,239.678 L-267.188,239.879 L-266.989,242.663 L-268.381,242.463 L-268.381,244.056 L-267.188,244.254 L-267.584,247.038 L-265.994,247.237 C-265.994,247.237,-265.594,235.102,-267.188,229.134 C-268.78,223.166,-279.123,210.433,-282.307,210.037"/>
    <path fill="#fff" d="M-320.703,120.313 C-320.703,120.313,-308.766,108.973,-305.781,107.581 C-302.797,106.188,-300.013,105.79,-299.217,104.995 C-298.421,104.199,-300.212,100.419,-300.81,100.419 C-301.406,100.419,-307.572,104.795,-308.567,106.984 C-309.562,109.172,-321.697,118.721,-321.299,119.518"/>
    <path fill="#fff" d="M-318.713,142.793 L-302.797,147.567 L-302.997,148.562 L-319.906,145.778 L-318.713,142.793 Z"/>
    <path fill="#fffffe" d="M-282.307,210.037 C-282.307,210.037,-296.631,228.539,-296.035,229.333 C-295.436,230.129,-292.452,226.149,-291.657,225.554 C-290.863,224.958,-288.076,224.958,-288.076,224.958 C-288.076,224.958,-281.513,216.402,-280.914,216.6 C-280.317,216.801,-277.731,219.387,-277.731,219.387 C-277.731,219.387,-284.893,225.554,-284.495,226.351 C-284.096,227.146,-282.505,227.146,-282.505,227.146 C-282.505,227.146,-275.543,222.57,-274.944,222.967 C-274.348,223.366,-272.361,225.354,-272.361,225.354 C-272.361,225.354,-277.533,229.732,-277.533,230.526 C-277.533,231.323,-271.167,229.333,-271.167,229.333 C-271.167,229.333,-268.78,232.317,-269.376,232.717 C-269.972,233.112,-272.559,234.308,-272.559,234.308 L-271.762,235.501 L-268.579,235.102 L-268.183,237.291 L-269.772,238.087 L-269.772,239.678 L-267.188,239.879 L-266.989,242.663 L-268.381,242.463 L-268.381,244.056 L-267.188,244.254 L-267.584,247.038 L-265.994,247.237 C-265.994,247.237,-265.594,235.102,-267.188,229.134 C-268.78,223.166,-279.123,210.433,-282.307,210.037"/>
    <path fill="#fff" d="M-109.638,-0.4921 C-109.638,-0.4921,-100.718,-8.9661,-98.4876,-10.0068 C-96.2579,-11.0476,-94.1773,-11.3448,-93.5828,-11.9393 C-92.9875,-12.5337,-94.3263,-15.3587,-94.7726,-15.3587 C-95.218,-15.3587,-99.8264,-12.0884,-100.57,-10.4523 C-101.313,-8.8179,-110.381,-1.6819,-110.084,-1.0865"/>
    <path fill="#fff" d="M-108.151,16.3062 L-96.2579,19.8738 L-96.4069,20.6173 L-109.043,18.5366 L-108.151,16.3062 Z"/>
    <g>
        <path fill="#fff" d="M-5.7578,150.215 C-5.7578,150.215,3.9491,140.993,6.3763,139.861 C8.8025,138.728,11.0666,138.405,11.7135,137.758 C12.3612,137.111,10.9044,134.037,10.4188,134.037 C9.9341,134.037,4.9194,137.596,4.1103,139.376 C3.3013,141.155,-6.5659,148.92,-6.2425,149.568"/>
        <path fill="#fffffe" d="M20.6174,80.9291 C20.6174,80.9291,11.9136,92.1717,12.2758,92.6544 C12.6394,93.1378,14.4531,90.7195,14.9358,90.358 C15.4185,89.9958,17.1118,89.9958,17.1118,89.9958 C17.1118,89.9958,21.1,84.7969,21.4637,84.9175 C21.8265,85.0393,23.3979,86.6107,23.3979,86.6107 C23.3979,86.6107,19.046,90.358,19.2877,90.842 C19.5301,91.3255,20.4968,91.3255,20.4968,91.3255 C20.4968,91.3255,24.7275,88.5449,25.0912,88.7859 C25.4533,89.0283,26.6611,90.2367,26.6611,90.2367 C26.6611,90.2367,23.5184,92.8968,23.5184,93.3795 C23.5184,93.8636,27.3862,92.6544,27.3862,92.6544 C27.3862,92.6544,28.837,94.4675,28.4749,94.7105 C28.1127,94.9508,26.5406,95.6773,26.5406,95.6773 L27.0247,96.4024 L28.9589,96.16 L29.1999,97.4897 L28.2338,97.9737 L28.2338,98.9405 L29.8045,99.0624 L29.925,100.754 L29.0794,100.632 L29.0794,101.601 L29.8045,101.721 L29.5635,103.413 L30.5296,103.533 C30.5296,103.533,30.7727,96.16,29.8045,92.5332 C28.837,88.9071,22.5523,81.1701,20.6174,80.9291"/>
        <path d="M22.2593,90.3196 C22.2593,90.3196,21.6936,89.7592,21.1937,89.5867 C20.8695,89.4751,26.5005,87.5441,28.0639,85.1684 C28.1931,84.9713,28.8211,85.926,28.7431,86.9444 C28.6761,87.8104,27.4108,91.9628,27.4108,91.9628 C27.4108,91.9628,29.2977,92.0959,31.1632,91.5853 C30.8522,92.5178,28.2768,94.6269,28.2768,94.6269 C28.2768,94.6269,30.3798,97.4571,30.5087,97.65 C30.6375,97.8432,30.1326,98.3796,29.8756,98.3796 C29.618,98.3796,28.4543,103.471,28.4543,103.664 C28.4543,103.857,26.187,104.403,26.1226,104.597 C26.0582,104.79,28.6429,105.37,30.7023,110.646 C30.7023,110.646,29.3511,114.314,26.7127,115.086 C26.7127,115.086,22.595,115.021,24.0106,111.675 C24.0106,111.675,17.5076,110.503,17.5745,110.814 C17.6407,111.124,21.3934,112.346,22.5038,112.657 C22.6319,112.713,22.5925,113.301,22.5925,113.301 C22.5925,113.301,18.487,114.281,18.662,114.433 C19.1508,114.855,22.7192,114.318,22.8362,114.389 C22.9543,114.46,22.9349,114.589,23.014,114.811 C23.0938,115.033,20.8512,116.237,20.9715,116.587 C21.0921,116.937,23.4646,115.501,23.636,115.499 C23.8074,115.497,24.3506,115.49,24.3463,115.677 C24.3434,115.864,23.3697,117.409,23.5472,117.586 C23.7247,117.763,25.0348,116.054,25.2123,115.965 C25.3901,115.877,25.8195,115.865,26.0782,116.01 C26.0782,116.299,25.9448,116.942,26.0342,117.009 C26.4114,116.831,26.567,116.52,26.8777,115.721 C27.5432,115.854,31.0966,112.79,31.5385,110.517 C31.6294,110.481,32.2514,113.145,32.2514,113.145 C32.2514,113.145,32.6285,112.346,32.8064,111.613 C32.8776,111.32,38.1378,111.806,39.1029,111.806 C40.068,111.806,42.1868,111.66,43.577,110.556 C43.7363,110.429,44.014,110.337,44.5378,110.686 C43.6207,112.391,34.84,115.365,33.8749,115.494 C33.1323,116.281,34.2245,117.198,34.0932,117.679 C33.0572,118.401,32.782,119.252,31.3839,120.257 C30.9033,122.267,29.9415,124.147,30.1601,124.409 C38.0971,126.577,38.7319,135.721,38.1142,138.088 C37.8856,138.533,37.3874,138.662,37.1967,138.758 C37.4146,139.706,36.6206,142.496,36.6206,142.496 C36.6206,142.496,41.182,140.832,44.3417,142.494 C43.178,143.318,42.8614,144.167,42.8614,144.167 C42.8614,144.167,40.467,143.865,38.6961,144.257 C36.8364,144.668,32.6278,147.781,27.2054,148.838 C26.3248,148.74,26.1877,148.349,26.2858,148.153 C26.3831,147.957,27.2641,148.153,27.4849,147.834 C27.8316,147.35,26.7352,146.88,26.4418,147.154 C30.0241,140.558,24.4758,135.595,23.7018,135.624 C23.1926,135.644,23.7158,136.02,23.6889,136.253 C18.0837,141.086,18.078,143.589,18.1427,143.846 C18.2068,144.104,6.9452,142.867,6.9452,142.867 C6.9452,142.867,6.6318,145.127,5.458,146.039 C4.7023,146.625,3.9118,147.839,3.9376,148.478 C3.9497,148.799,3.3636,148.975,3.3636,148.975 C3.2741,149.238,2.9718,149.288,2.7177,149.229 C3.4609,144.649,3.5987,143.846,3.657,142.75 C3.696,141.203,2.7567,138.306,2.6197,138.287 C2.4826,138.267,2.4042,138.737,2.4042,138.737 C2.4042,138.737,2.0714,138.796,1.9931,138.698 C2.3065,135.781,2.6587,133.569,2.6977,133.139 C7.6702,133.511,9.5879,134.02,11.7417,133.569 C12.1915,132.845,13.0085,128.79,13.0085,128.79 L13.5875,129.048 L14.1664,124.093 L11.9153,121.97 C11.9153,121.97,15.4385,125.149,21.5931,124.691 C27.5658,124.247,30.9857,120.872,30.6303,117.897 C29.7196,119.318,27.3554,122.486,20.9221,123.385 C20.5943,123.425,20.814,123.787,20.5274,123.826 C17.9295,124.181,12.7559,122.56,11.2715,120.748 C9.595,118.702,9.1814,114.5,10.6925,111.547 C10.1801,111.391,10.2195,111.495,10.1783,111.032 C10.1361,110.57,12.9255,106.369,17.0195,105.862 C17.197,105.841,17.2853,104.597,17.2853,104.597 C17.2853,104.597,16.1313,103.62,15.7756,103.042 C15.4435,102.503,15.4428,100.756,15.4428,100.756 L14.8431,101.288 L13.7163,99.8374 L13.4003,100.133 C13.4003,100.133,10.9416,97.768,10.8854,97.2638 C10.6689,96.692,11.0243,92.2512,22.2593,90.3196"/>
        <path fill="#fff" d="M17.9037,97.8605 C17.9037,97.8605,21.6732,94.2796,22.6158,93.8398 C23.5579,93.4001,24.4372,93.2744,24.6884,93.0232 C24.9399,92.772,24.3742,91.5783,24.1856,91.5783 C23.9974,91.5783,22.05,92.9602,21.7358,93.6516 C21.4217,94.3422,17.5899,97.3578,17.7155,97.6093"/>
        <path fill="#fff" d="M18.5321,104.959 L23.5579,106.467 L23.495,106.781 L18.1553,105.902 L18.5321,104.959 Z"/>
        <path fill="#fffffe" d="M30.0283,126.193 C30.0283,126.193,25.5051,132.036,25.6934,132.286 C25.8823,132.537,26.8249,131.281,27.0757,131.093 C27.3266,130.905,28.2065,130.905,28.2065,130.905 C28.2065,130.905,30.2791,128.203,30.468,128.266 C30.6566,128.329,31.4732,129.145,31.4732,129.145 C31.4732,129.145,29.2117,131.093,29.3373,131.345 C29.4632,131.596,29.9656,131.596,29.9656,131.596 C29.9656,131.596,32.1642,130.151,32.3532,130.276 C32.5414,130.402,33.169,131.03,33.169,131.03 C33.169,131.03,31.5358,132.412,31.5358,132.663 C31.5358,132.915,33.5458,132.286,33.5458,132.286 C33.5458,132.286,34.2998,133.228,34.1116,133.355 C33.9234,133.48,33.1064,133.857,33.1064,133.857 L33.358,134.234 L34.3631,134.108 L34.4884,134.799 L33.9863,135.051 L33.9863,135.553 L34.8026,135.616 L34.8652,136.496 L34.4258,136.432 L34.4258,136.935 L34.8026,136.998 L34.6773,137.877 L35.1794,137.94 C35.1794,137.94,35.3057,134.108,34.8026,132.223 C34.2998,130.339,31.0338,126.318,30.0283,126.193"/>
    </g>
</svg>
