<?xml version="1.0" encoding="utf-8"?>
<!-- Created by sK1 2.0rc5 (https://sk1project.net/) -->
<svg xmlns="http://www.w3.org/2000/svg" height="480.1px" width="480.1px" version="1.1" xmlns:xlink="http://www.w3.org/1999/xlink" id="a2e7394f-3b5a-11eb-8dae-00249b0259fa">

<g>
	<path style="fill:#ff4013;" d="M 277.4009,0.05 C 196.2671,0.0382 122.9401,48.4 91.0061,122.9848 L 88.4787,123.8227 89.4586,126.7623 C 47.4126,230.4631 97.3929,348.6143 201.0937,390.6603 225.3139,400.4808 251.2049,405.522 277.3409,405.5076 389.3046,405.5245 480.0832,314.773 480.1001,202.8092 480.117,90.8455 389.3655,0.066 277.4009,0.05 Z M 436.4188,304.9913 L 426.0087,294.5879 426.0087,270.3551 C 426.0205,269.3093 425.7891,268.2754 425.3329,267.3344 L 398.9782,214.6993 398.9782,189.2636 C 398.9782,187.0048 397.8505,184.8948 395.971,183.6412 L 375.6982,170.126 C 374.1093,169.065 372.1453,168.7263 370.2921,169.1934 L 345.4645,175.3969 303.7632,157.5027 298.026,117.3083 313.9267,101.4144 348.0595,101.4144 359.5474,118.6801 C 360.5847,120.2327 362.2192,121.2877 364.0615,121.5927 L 404.6073,128.3503 C 405.6936,128.5328 406.8069,128.4441 407.851,128.0935 L 445.1936,115.646 C 476.5144,175.7508 473.1643,248.0414 436.4188,304.9913 Z M 408.547,66.6397 L 397.5591,73.9649 366.9268,67.8358 347.0526,61.22 C 345.8362,60.807 344.5269,60.7546 343.2818,61.0714 L 318.157,67.3492 307.142,63.6798 315.3052,47.3534 338.1595,47.3534 C 339.2078,47.3542 340.2417,47.1118 341.1802,46.6438 L 364.5616,34.9531 C 380.6633,43.3579 395.476,54.0282 408.547,66.6397 Z M 203.3246,28.655 L 219.5429,39.4672 C 220.3403,39.9977 221.2408,40.3525 222.1851,40.5079 L 254.9326,45.9681 251.7363,55.5301 234.6732,61.2268 C 233.1452,61.7353 231.8486,62.7726 231.0174,64.1529 L 211.6095,96.4949 180.4365,115.2 134.4847,121.7616 C 131.154,122.2321 128.6773,125.0813 128.6731,128.4449 L 128.6731,148.7178 C 128.6731,150.5103 129.386,152.2284 130.6531,153.4954 L 142.1884,165.0307 142.1884,176.6403 114.0766,157.8947 103.8794,127.3029 C 123.2805,82.9728 158.84,47.698 203.3246,28.655 Z M 184.0856,250.2174 L 153.5412,244.1017 142.1884,221.4569 142.1884,205.5765 167.3673,180.3976 176.686,199.0418 C 177.8306,201.3327 180.173,202.7797 182.7341,202.7788 L 226.2127,202.7788 244.5191,233.2895 C 245.7405,235.3227 247.9385,236.5661 250.3104,236.5669 L 269.0966,236.5669 264.3663,260.2659 238.7819,285.8503 C 237.5123,287.1165 236.7977,288.8347 236.7951,290.628 L 236.7951,307.522 212.4677,325.7676 C 210.7664,327.044 209.7646,329.0468 209.7646,331.1737 L 209.7646,355.5823 201.3581,352.7981 189.4917,323.1186 189.4917,256.8398 C 189.4926,253.6283 187.2322,250.8593 184.0856,250.2174 Z M 163.7722,354.0998 C 100.0571,306.2989 73.1119,223.7072 96.3784,147.5285 L 101.994,164.3685 C 102.467,165.7935 103.4013,167.0208 104.6497,167.8554 L 138.3365,190.311 130.6531,198.0012 C 129.386,199.2682 128.6731,200.9864 128.6731,202.7788 L 128.6731,223.0517 C 128.6723,224.1 128.9147,225.1339 129.3827,226.0724 L 142.8979,253.1029 C 143.8338,254.9697 145.5798,256.2992 147.6282,256.7047 L 176.0103,262.3743 176.0103,324.4161 C 176.0094,325.2743 176.1725,326.1258 176.4901,326.9232 L 190.0053,360.7113 C 190.7453,362.557 192.2607,363.9837 194.1478,364.6105 L 214.4206,371.3681 C 215.0981,371.5979 215.8076,371.7161 216.5223,371.7195 220.2542,371.7195 223.2799,368.6938 223.2799,364.9619 L 223.2799,334.5525 247.6073,316.3069 C 249.3086,315.0306 250.3104,313.0278 250.3104,310.9008 L 250.3104,293.4256 275.3609,268.3751 C 276.3028,267.4316 276.9447,266.2296 277.2057,264.922 L 283.9634,231.1338 C 284.6949,227.4737 282.3213,223.9141 278.6612,223.1826 278.2261,223.0956 277.7844,223.0517 277.3409,223.0517 L 254.1352,223.0517 235.8288,192.541 C 234.6074,190.5078 232.4094,189.2644 230.0375,189.2636 L 186.9103,189.2636 175.3007,165.97 C 174.3285,164.0255 172.4803,162.6672 170.3339,162.3209 168.1883,161.9501 165.998,162.6579 164.475,164.213 L 155.7036,172.9506 155.7036,162.233 C 155.7036,160.4406 154.9907,158.7225 153.7236,157.4554 L 142.1884,145.9201 142.1884,134.3038 183.6937,128.3773 C 184.5849,128.2481 185.4422,127.9423 186.2143,127.4786 L 220.0024,107.2057 C 220.9502,106.6364 221.7442,105.8423 222.3135,104.8946 L 241.3025,73.2486 259.2034,67.2749 C 261.2248,66.6118 262.8112,65.0263 263.4742,63.0041 L 270.2319,42.7312 C 271.4026,39.1876 269.4792,35.3654 265.9357,34.1946 265.6088,34.0865 265.2735,34.0037 264.9339,33.9463 L 225.8208,27.4251 218.9482,22.8435 C 261.4731,9.0022 307.5314,10.7152 348.9109,27.6752 L 336.5647,33.8381 311.129,33.8381 C 308.5552,33.8238 306.1977,35.2733 305.0472,37.5751 L 291.5319,64.6056 C 289.867,67.9456 291.2244,72.0035 294.5644,73.6684 294.8491,73.8103 295.143,73.932 295.4446,74.0325 L 315.7175,80.7901 C 316.9338,81.2032 318.2431,81.2556 319.4882,80.9388 L 344.6131,74.661 363.0209,80.7901 C 363.2844,80.8847 363.5556,80.9574 363.8318,81.0064 L 397.6199,87.764 C 399.3769,88.1222 401.2048,87.7623 402.6949,86.7639 L 418.0752,76.5058 C 425.6446,84.9368 432.447,94.0258 438.4022,103.6647 L 405.1547,114.7472 369.1568,108.7464 357.2634,90.9063 C 356.0166,89.037 353.9217,87.9101 351.6748,87.8992 L 311.129,87.8992 C 309.3366,87.8992 307.6184,88.6121 306.3514,89.8791 L 286.0785,110.152 C 284.5733,111.6564 283.8645,113.7826 284.1661,115.8892 L 290.9237,163.1926 C 291.2641,165.5316 292.8015,167.5226 294.9783,168.4433 L 342.2817,188.7162 C 343.6366,189.3033 345.1486,189.4241 346.5795,189.0608 L 370.711,183.0263 385.4629,192.8789 385.4629,216.2941 C 385.4511,217.3398 385.6826,218.3737 386.1387,219.3147 L 412.4934,271.9499 412.4934,297.3856 C 412.4934,299.1781 413.2064,300.8962 414.4734,302.1632 L 428.6104,316.3069 C 365.914,399.876 247.3413,416.7971 163.7722,354.0998 Z" />
	<path style="fill:#000000;" d="M 65.4616,292.9302 C 65.4616,292.9302 63.67,291.1556 62.0869,290.6094 61.0602,290.2558 78.8925,284.1409 83.8435,276.6175 84.2526,275.9931 86.2414,279.0165 85.9943,282.2416 85.7824,284.984 81.7754,298.1339 81.7754,298.1339 81.7754,298.1339 87.7508,298.5555 93.6583,296.9384 92.6735,299.8915 84.5177,306.5707 84.5177,306.5707 84.5177,306.5707 91.1776,315.5333 91.5856,316.1441 91.9936,316.756 90.3946,318.4547 89.5809,318.4547 88.765,318.4547 85.0798,334.5781 85.0798,335.19 85.0798,335.8008 77.8998,337.5301 77.6958,338.1432 77.4918,338.754 85.677,340.5932 92.1987,357.3002 92.1987,357.3002 87.9197,368.9145 79.5645,371.36 79.5645,371.36 66.5246,371.156 71.0076,360.5604 71.0076,360.5604 50.4136,356.848 50.6256,357.8316 50.8352,358.8153 62.7192,362.6841 66.2356,363.6677 66.6413,363.8445 66.5166,365.7075 66.5166,365.7075 66.5166,365.7075 53.5153,368.8125 54.0694,369.293 55.6174,370.6302 66.9178,368.9292 67.2883,369.1536 67.6623,369.3768 67.6011,369.7859 67.8516,370.4897 68.1043,371.1922 61.0024,375.0055 61.3832,376.1138 61.7651,377.2232 69.2783,372.6745 69.8211,372.6677 70.3639,372.662 72.0841,372.6394 72.0705,373.2309 72.0614,373.8236 68.978,378.7157 69.54,379.2777 70.1021,379.8398 74.2508,374.4264 74.8129,374.1443 75.3761,373.8644 76.736,373.8281 77.5553,374.2859 77.5553,375.2004 77.1326,377.2391 77.4159,377.4499 78.6103,376.8878 79.1032,375.903 80.0869,373.3714 82.1947,373.793 93.4475,364.0904 94.847,356.8933 95.1348,356.7766 97.1044,365.2145 97.1044,365.2145 97.1044,365.2145 98.2988,362.6841 98.862,360.3632 99.0875,359.4329 115.7457,360.974 118.802,360.974 121.8583,360.974 128.5681,360.5106 132.9706,357.0146 133.4749,356.6123 134.3543,356.3222 136.0133,357.4282 133.1089,362.8269 105.302,372.245 102.2458,372.6518 99.8943,375.1438 103.3529,378.0482 102.937,379.5712 99.6564,381.8592 98.7849,384.554 94.3574,387.7372 92.8355,394.1024 89.7895,400.0552 90.4819,400.8847 115.6166,407.7509 117.6269,436.7079 115.6709,444.2019 114.9468,445.6116 113.3694,446.0218 112.7654,446.3244 113.4555,449.3285 110.9409,458.1619 110.9409,458.1619 110.9409,458.1619 125.386,452.8925 135.3923,458.1551 131.7071,460.7661 130.7042,463.4552 130.7042,463.4552 130.7042,463.4552 123.1218,462.4999 117.5136,463.7408 111.6242,465.0428 98.2965,474.8984 81.1249,478.247 78.3361,477.9365 77.902,476.6968 78.2125,476.0758 78.5208,475.4559 81.3107,476.0758 82.0099,475.0672 83.108,473.5351 79.6359,472.0472 78.7066,472.9153 90.0512,452.0256 72.4807,436.3079 70.0296,436.4019 68.417,436.4654 70.0738,437.6542 69.9888,438.3919 52.2381,453.6982 52.22,461.6239 52.4251,462.4387 52.628,463.2546 16.9648,459.3382 16.9648,459.3382 16.9648,459.3382 15.9721,466.4956 12.2551,469.3819 9.8618,471.2381 7.3585,475.0842 7.4401,477.1059 7.4786,478.1235 5.6224,478.6799 5.6224,478.6799 5.3391,479.5151 4.3816,479.6715 3.577,479.4856 5.9307,464.9794 6.367,462.4387 6.5517,458.9688 6.6752,454.0699 3.7005,444.8954 3.2665,444.8342 2.8325,444.7719 2.5843,446.2598 2.5843,446.2598 2.5843,446.2598 1.5304,446.4445 1.2822,446.1363 2.2749,436.8994 3.39,429.8939 3.5135,428.5318 19.2607,429.708 25.3336,431.3206 32.1544,429.8939 33.5788,427.6014 36.166,414.7587 36.166,414.7587 L 37.9995,415.5746 39.8328,399.8841 32.704,393.1596 C 32.704,393.1596 43.8614,403.2282 63.3516,401.7777 82.266,400.3725 93.0962,389.684 91.9709,380.2625 89.0869,384.7625 81.5997,394.7937 61.2268,397.6426 60.1888,397.7695 60.8846,398.9141 59.9768,399.0376 51.7497,400.1629 35.3659,395.0294 30.6653,389.2908 25.3562,382.8111 24.0462,369.5049 28.8318,360.1547 27.209,359.6607 27.3337,359.9893 27.2034,358.524 27.0697,357.0577 35.9031,343.756 48.8679,342.1502 49.43,342.0822 49.7099,338.1432 49.7099,338.1432 49.7099,338.1432 46.0553,335.0495 44.9289,333.2205 43.8773,331.5127 43.875,325.9792 43.875,325.9792 L 41.9757,327.6666 38.4075,323.0714 37.4068,324.0086 C 37.4068,324.0086 29.6205,316.518 29.4426,314.9213 28.757,313.1105 29.8823,299.0473 65.4616,292.9302" />
	<path style="fill:#ffffff;" d="M 51.6681,316.811 C 51.6681,316.811 63.6054,305.4709 66.5903,304.0782 69.574,302.6855 72.3584,302.2877 73.1539,301.4922 73.9505,300.6967 72.1589,296.9163 71.5617,296.9163 70.9656,296.9163 64.7987,301.2927 63.8037,303.4821 62.8088,305.6692 50.6743,315.2188 51.072,316.0155" />
	<path style="fill:#ffffff;" d="M 53.658,339.2906 L 69.574,344.0648 69.3746,345.0598 52.4648,342.2754 53.658,339.2906 Z" />
	<path style="fill:#fffffe;" d="M 90.0643,406.5344 C 90.0643,406.5344 75.7404,425.0364 76.3365,425.8308 76.9348,426.6263 79.9197,422.6464 80.7141,422.0515 81.5085,421.4554 84.2951,421.4554 84.2951,421.4554 84.2951,421.4554 90.8586,412.8996 91.457,413.098 92.0542,413.2985 94.6402,415.8845 94.6402,415.8845 94.6402,415.8845 87.4783,422.0515 87.876,422.8481 88.2749,423.6437 89.8659,423.6437 89.8659,423.6437 89.8659,423.6437 96.8284,419.0677 97.4268,419.4644 98.0228,419.8632 100.0105,421.852 100.0105,421.852 100.0105,421.852 94.8385,426.2296 94.8385,427.024 94.8385,427.8207 101.2038,425.8308 101.2038,425.8308 101.2038,425.8308 103.5914,428.8145 102.9954,429.2145 102.3993,429.61 99.8122,430.8056 99.8122,430.8056 L 100.6088,431.9988 103.792,431.6 104.1886,433.7882 102.5987,434.5848 102.5987,436.1759 105.1836,436.3765 105.3819,439.1608 103.9903,438.9602 103.9903,440.5535 105.1836,440.7518 104.787,443.5361 106.3769,443.7344 C 106.3769,443.7344 106.7769,431.6 105.1836,425.6313 103.5914,419.6638 93.2486,406.931 90.0643,406.5344" />
</g>
</svg>