<?xml version="1.0" encoding="utf-8"?>
<!-- Created by sK1 2.0rc5 (https://sk1project.net/) -->
<svg xmlns="http://www.w3.org/2000/svg" height="150.0px" width="150.0px" version="1.1" xmlns:xlink="http://www.w3.org/1999/xlink" id="ab177d11-3c22-11eb-9bbb-00249b0259fa">
<defs id="defs1">
	<linearGradient y2="-7.34083170408" spreadMethod="pad" gradientUnits="userSpaceOnUse" x2="94.3067021989" y1="52.103954818" x1="94.3067021989" id="grad1">
		<stop style="stop-color:#90d7e8;stop-opacity:1.0;" offset="0.0" />
		<stop style="stop-color:#8fd8e9;stop-opacity:1.0;" offset="0.05948725" />
		<stop style="stop-color:#60bfd6;stop-opacity:1.0;" offset="0.1303" />
		<stop style="stop-color:#3aabc4;stop-opacity:1.0;" offset="0.2032" />
		<stop style="stop-color:#3caac4;stop-opacity:1.0;" offset="0.2809" />
		<stop style="stop-color:#1b9bb9;stop-opacity:1.0;" offset="0.6685" />
		<stop style="stop-color:#0483a1;stop-opacity:1.0;" offset="0.8876" />
		<stop style="stop-color:#047c98;stop-opacity:1.0;" offset="1.0" />
	</linearGradient>
</defs>
<g>
	<g>
		<path style="fill:none;" d="M 94.3067,25.0288 C 94.825,25.0288 95.3434,24.9547 95.9358,24.8807 98.5275,24.2883 100.6009,22.2149 101.1193,19.6972 102.0819,15.1802 98.6756,11.1074 94.3067,11.1074 93.7884,11.1074 93.27,11.1815 92.6776,11.2555 90.0859,11.8479 88.0125,13.9213 87.4941,16.439 86.5315,21.0301 89.9378,25.0288 94.3067,25.0288 Z" />
		<path style="fill:#f8a06e;" d="M 48.3219,34.1369 L 39.2138,111.0744 66.7603,82.195 66.7603,17.1795 48.3219,34.1369 Z M 52.2465,52.5752 C 51.5801,52.5752 51.0617,52.0569 51.0617,51.3904 51.0617,50.724 51.5801,50.2056 52.2465,50.2056 52.913,50.2056 53.4313,50.724 53.4313,51.3904 53.4313,51.9828 52.913,52.5752 52.2465,52.5752 Z M 52.2465,49.317 C 51.5801,49.317 51.0617,48.7987 51.0617,48.1322 51.0617,47.4658 51.5801,46.9474 52.2465,46.9474 52.913,46.9474 53.4313,47.4658 53.4313,48.1322 53.4313,48.7987 52.913,49.317 52.2465,49.317 Z M 52.2465,46.0588 C 51.5801,46.0588 51.0617,45.5405 51.0617,44.874 51.0617,44.2076 51.5801,43.6893 52.2465,43.6893 52.913,43.6893 53.4313,44.2076 53.4313,44.874 53.4313,45.5405 52.913,46.0588 52.2465,46.0588 Z M 55.4307,52.5752 C 54.7642,52.5752 54.2459,52.0569 54.2459,51.3904 54.2459,50.724 54.7642,50.2056 55.4307,50.2056 56.0971,50.2056 56.6155,50.724 56.6155,51.3904 56.6155,51.9828 56.0971,52.5752 55.4307,52.5752 Z M 55.4307,49.317 C 54.7642,49.317 54.2459,48.7987 54.2459,48.1322 54.2459,47.4658 54.7642,46.9474 55.4307,46.9474 56.0971,46.9474 56.6155,47.4658 56.6155,48.1322 56.6155,48.7987 56.0971,49.317 55.4307,49.317 Z M 55.4307,46.0588 C 54.7642,46.0588 54.2459,45.5405 54.2459,44.874 54.2459,44.2076 54.7642,43.6893 55.4307,43.6893 56.0971,43.6893 56.6155,44.2076 56.6155,44.874 56.6155,45.5405 56.0971,46.0588 55.4307,46.0588 Z M 58.6889,52.5752 C 58.0224,52.5752 57.5041,52.0569 57.5041,51.3904 57.5041,50.724 58.0224,50.2056 58.6889,50.2056 59.3553,50.2056 59.8736,50.724 59.8736,51.3904 59.7996,51.9828 59.2812,52.5752 58.6889,52.5752 Z M 58.6889,49.317 C 58.0224,49.317 57.5041,48.7987 57.5041,48.1322 57.5041,47.4658 58.0224,46.9474 58.6889,46.9474 59.3553,46.9474 59.8736,47.4658 59.8736,48.1322 59.8736,48.7987 59.2812,49.317 58.6889,49.317 Z M 61.873,62.2757 C 61.2065,62.2757 60.6882,61.7574 60.6882,61.0909 60.6882,60.4245 61.2065,59.9061 61.873,59.9061 62.5394,59.9061 63.0578,60.4245 63.0578,61.0909 63.0578,61.7574 62.5394,62.2757 61.873,62.2757 Z M 61.873,59.0175 C 61.2065,59.0175 60.6882,58.4992 60.6882,57.8327 60.6882,57.1663 61.2065,56.6479 61.873,56.6479 62.5394,56.6479 63.0578,57.1663 63.0578,57.8327 63.0578,58.4992 62.5394,59.0175 61.873,59.0175 Z M 61.873,55.7593 C 61.2065,55.7593 60.6882,55.241 60.6882,54.5745 60.6882,53.9081 61.2065,53.3898 61.873,53.3898 62.5394,53.3898 63.0578,53.9081 63.0578,54.5745 63.0578,55.241 62.5394,55.7593 61.873,55.7593 Z M 61.873,52.5752 C 61.2065,52.5752 60.6882,52.0569 60.6882,51.3904 60.6882,50.724 61.2065,50.2056 61.873,50.2056 62.5394,50.2056 63.0578,50.724 63.0578,51.3904 63.0578,51.9828 62.5394,52.5752 61.873,52.5752 Z M 61.873,49.317 C 61.2065,49.317 60.6882,48.7987 60.6882,48.1322 60.6882,47.4658 61.2065,46.9474 61.873,46.9474 62.5394,46.9474 63.0578,47.4658 63.0578,48.1322 63.0578,48.7987 62.5394,49.317 61.873,49.317 Z M 61.873,46.0588 C 61.2065,46.0588 60.6882,45.5405 60.6882,44.874 60.6882,44.2076 61.2065,43.6893 61.873,43.6893 62.5394,43.6893 63.0578,44.2076 63.0578,44.874 63.0578,45.5405 62.5394,46.0588 61.873,46.0588 Z M 61.873,42.8007 C 61.2065,42.8007 60.6882,42.2823 60.6882,41.6159 60.6882,40.9494 61.2065,40.4311 61.873,40.4311 62.5394,40.4311 63.0578,40.9494 63.0578,41.6159 63.0578,42.2823 62.5394,42.8007 61.873,42.8007 Z M 65.0571,65.5339 C 64.3907,65.5339 63.8723,65.0155 63.8723,64.3491 63.8723,63.6826 64.3907,63.1643 65.0571,63.1643 65.7236,63.1643 66.2419,63.6826 66.2419,64.3491 66.2419,65.0155 65.7236,65.5339 65.0571,65.5339 Z M 65.0571,62.2757 C 64.3907,62.2757 63.8723,61.7574 63.8723,61.0909 63.8723,60.4245 64.3907,59.9061 65.0571,59.9061 65.7236,59.9061 66.2419,60.4245 66.2419,61.0909 66.2419,61.7574 65.7236,62.2757 65.0571,62.2757 Z M 65.0571,59.0175 C 64.3907,59.0175 63.8723,58.4992 63.8723,57.8327 63.8723,57.1663 64.3907,56.6479 65.0571,56.6479 65.7236,56.6479 66.2419,57.1663 66.2419,57.8327 66.2419,58.4992 65.7236,59.0175 65.0571,59.0175 Z M 65.0571,55.7593 C 64.3907,55.7593 63.8723,55.241 63.8723,54.5745 63.8723,53.9081 64.3907,53.3898 65.0571,53.3898 65.7236,53.3898 66.2419,53.9081 66.2419,54.5745 66.2419,55.241 65.7236,55.7593 65.0571,55.7593 Z M 65.0571,52.5752 C 64.3907,52.5752 63.8723,52.0569 63.8723,51.3904 63.8723,50.724 64.3907,50.2056 65.0571,50.2056 65.7236,50.2056 66.2419,50.724 66.2419,51.3904 66.2419,51.9828 65.7236,52.5752 65.0571,52.5752 Z M 65.0571,49.317 C 64.3907,49.317 63.8723,48.7987 63.8723,48.1322 63.8723,47.4658 64.3907,46.9474 65.0571,46.9474 65.7236,46.9474 66.2419,47.4658 66.2419,48.1322 66.2419,48.7987 65.7236,49.317 65.0571,49.317 Z M 65.0571,46.0588 C 64.3907,46.0588 63.8723,45.5405 63.8723,44.874 63.8723,44.2076 64.3907,43.6893 65.0571,43.6893 65.7236,43.6893 66.2419,44.2076 66.2419,44.874 66.2419,45.5405 65.7236,46.0588 65.0571,46.0588 Z M 65.0571,42.8007 C 64.3907,42.8007 63.8723,42.2823 63.8723,41.6159 63.8723,40.9494 64.3907,40.4311 65.0571,40.4311 65.7236,40.4311 66.2419,40.9494 66.2419,41.6159 66.2419,42.2823 65.7236,42.8007 65.0571,42.8007 Z" />
		<path style="fill:#ff4013;" d="M 93.9365,75.3084 C 93.27,75.3084 92.7517,74.7901 92.7517,74.1236 92.7517,73.4572 93.27,72.9388 93.9365,72.9388 94.0846,72.9388 94.2327,72.9388 94.3067,73.0129 L 94.3067,71.9762 C 94.1586,72.0502 94.0846,72.0502 93.9365,72.0502 93.27,72.0502 92.7517,71.5319 92.7517,70.8655 92.7517,70.199 93.27,69.6807 93.9365,69.6807 94.0846,69.6807 94.2327,69.6807 94.3067,69.7547 L 94.3067,68.718 C 94.1586,68.7921 94.0846,68.7921 93.9365,68.7921 93.27,68.7921 92.7517,68.2737 92.7517,67.6073 92.7517,66.9408 93.27,66.4225 93.9365,66.4225 94.0846,66.4225 94.2327,66.4225 94.3067,66.4965 L 94.3067,65.4598 C 94.1586,65.5339 94.0846,65.5339 93.9365,65.5339 93.27,65.5339 92.7517,65.0155 92.7517,64.3491 92.7517,63.6826 93.27,63.1643 93.9365,63.1643 94.0846,63.1643 94.2327,63.1643 94.3067,63.2383 L 94.3067,58.9435 C 94.1586,59.0175 94.0846,59.0175 93.9365,59.0175 93.27,59.0175 92.7517,58.4992 92.7517,57.8327 92.7517,57.1663 93.27,56.6479 93.9365,56.6479 94.0846,56.6479 94.2327,56.6479 94.3067,56.722 L 94.3067,55.1669 94.3067,55.1669 90.234,50.8721 87.4941,47.9841 82.4588,42.6526 77.4234,37.395 C 73.2026,32.9521 70.7589,27.1021 70.4627,20.882 L 66.8343,17.1055 66.8343,82.195 94.3067,111.0744 94.3067,75.2344 C 94.1586,75.2344 94.0846,75.3084 93.9365,75.3084 Z M 68.2412,68.7921 C 67.5748,68.7921 67.0565,68.2737 67.0565,67.6073 67.0565,66.9408 67.5748,66.4225 68.2412,66.4225 68.9077,66.4225 69.426,66.9408 69.426,67.6073 69.426,68.2737 68.9077,68.7921 68.2412,68.7921 Z M 68.2412,65.5339 C 67.5748,65.5339 67.0565,65.0155 67.0565,64.3491 67.0565,63.6826 67.5748,63.1643 68.2412,63.1643 68.9077,63.1643 69.426,63.6826 69.426,64.3491 69.426,65.0155 68.9077,65.5339 68.2412,65.5339 Z M 68.2412,62.2757 C 67.5748,62.2757 67.0565,61.7574 67.0565,61.0909 67.0565,60.4245 67.5748,59.9061 68.2412,59.9061 68.9077,59.9061 69.426,60.4245 69.426,61.0909 69.426,61.7574 68.9077,62.2757 68.2412,62.2757 Z M 68.2412,59.0175 C 67.5748,59.0175 67.0565,58.4992 67.0565,57.8327 67.0565,57.1663 67.5748,56.6479 68.2412,56.6479 68.9077,56.6479 69.426,57.1663 69.426,57.8327 69.426,58.4992 68.9077,59.0175 68.2412,59.0175 Z M 68.2412,55.7593 C 67.5748,55.7593 67.0565,55.241 67.0565,54.5745 67.0565,53.9081 67.5748,53.3898 68.2412,53.3898 68.9077,53.3898 69.426,53.9081 69.426,54.5745 69.426,55.241 68.9077,55.7593 68.2412,55.7593 Z M 68.2412,52.5752 C 67.5748,52.5752 67.0565,52.0569 67.0565,51.3904 67.0565,50.724 67.5748,50.2056 68.2412,50.2056 68.9077,50.2056 69.426,50.724 69.426,51.3904 69.426,51.9828 68.9077,52.5752 68.2412,52.5752 Z M 68.2412,49.317 C 67.5748,49.317 67.0565,48.7987 67.0565,48.1322 67.0565,47.4658 67.5748,46.9474 68.2412,46.9474 68.9077,46.9474 69.426,47.4658 69.426,48.1322 69.426,48.7987 68.9077,49.317 68.2412,49.317 Z M 68.2412,46.0588 C 67.5748,46.0588 67.0565,45.5405 67.0565,44.874 67.0565,44.2076 67.5748,43.6893 68.2412,43.6893 68.9077,43.6893 69.426,44.2076 69.426,44.874 69.426,45.5405 68.9077,46.0588 68.2412,46.0588 Z M 68.2412,42.8007 C 67.5748,42.8007 67.0565,42.2823 67.0565,41.6159 67.0565,40.9494 67.5748,40.4311 68.2412,40.4311 68.9077,40.4311 69.426,40.9494 69.426,41.6159 69.426,42.2823 68.9077,42.8007 68.2412,42.8007 Z M 68.2412,39.5425 C 67.5748,39.5425 67.0565,39.0241 67.0565,38.3577 67.0565,37.6912 67.5748,37.1729 68.2412,37.1729 68.9077,37.1729 69.426,37.6912 69.426,38.3577 69.426,39.0241 68.9077,39.5425 68.2412,39.5425 Z M 71.4994,72.0502 C 70.833,72.0502 70.3146,71.5319 70.3146,70.8655 70.3146,70.199 70.833,69.6807 71.4994,69.6807 72.1659,69.6807 72.6842,70.199 72.6842,70.8655 72.6842,71.5319 72.0918,72.0502 71.4994,72.0502 Z M 71.4994,62.2757 C 70.833,62.2757 70.3146,61.7574 70.3146,61.0909 70.3146,60.4245 70.833,59.9061 71.4994,59.9061 72.1659,59.9061 72.6842,60.4245 72.6842,61.0909 72.6842,61.7574 72.0918,62.2757 71.4994,62.2757 Z M 71.4994,59.0175 C 70.833,59.0175 70.3146,58.4992 70.3146,57.8327 70.3146,57.1663 70.833,56.6479 71.4994,56.6479 72.1659,56.6479 72.6842,57.1663 72.6842,57.8327 72.6842,58.4992 72.0918,59.0175 71.4994,59.0175 Z M 71.4994,55.7593 C 70.833,55.7593 70.3146,55.241 70.3146,54.5745 70.3146,53.9081 70.833,53.3898 71.4994,53.3898 72.1659,53.3898 72.6842,53.9081 72.6842,54.5745 72.6842,55.241 72.0918,55.7593 71.4994,55.7593 Z M 71.4994,49.317 C 70.833,49.317 70.3146,48.7987 70.3146,48.1322 70.3146,47.4658 70.833,46.9474 71.4994,46.9474 72.1659,46.9474 72.6842,47.4658 72.6842,48.1322 72.6842,48.7987 72.0918,49.317 71.4994,49.317 Z M 71.4994,42.8007 C 70.833,42.8007 70.3146,42.2823 70.3146,41.6159 70.3146,40.9494 70.833,40.4311 71.4994,40.4311 72.1659,40.4311 72.6842,40.9494 72.6842,41.6159 72.6842,42.2823 72.0918,42.8007 71.4994,42.8007 Z M 71.4994,39.5425 C 70.833,39.5425 70.3146,39.0241 70.3146,38.3577 70.3146,37.6912 70.833,37.1729 71.4994,37.1729 72.1659,37.1729 72.6842,37.6912 72.6842,38.3577 72.6842,39.0241 72.0918,39.5425 71.4994,39.5425 Z M 74.6836,85.0089 C 74.0171,85.0089 73.4988,84.4906 73.4988,83.8241 73.4988,83.1577 74.0171,82.6393 74.6836,82.6393 75.35,82.6393 75.8684,83.1577 75.8684,83.8241 75.8684,84.4906 75.35,85.0089 74.6836,85.0089 Z M 74.6836,81.7507 C 74.0171,81.7507 73.4988,81.2324 73.4988,80.566 73.4988,79.8995 74.0171,79.3812 74.6836,79.3812 75.35,79.3812 75.8684,79.8995 75.8684,80.566 75.8684,81.2324 75.35,81.7507 74.6836,81.7507 Z M 74.6836,78.5666 C 74.0171,78.5666 73.4988,78.0483 73.4988,77.3818 73.4988,76.7154 74.0171,76.197 74.6836,76.197 75.35,76.197 75.8684,76.7154 75.8684,77.3818 75.8684,77.9742 75.35,78.5666 74.6836,78.5666 Z M 74.6836,75.3084 C 74.0171,75.3084 73.4988,74.7901 73.4988,74.1236 73.4988,73.4572 74.0171,72.9388 74.6836,72.9388 75.35,72.9388 75.8684,73.4572 75.8684,74.1236 75.8684,74.716 75.35,75.3084 74.6836,75.3084 Z M 74.6836,72.0502 C 74.0171,72.0502 73.4988,71.5319 73.4988,70.8655 73.4988,70.199 74.0171,69.6807 74.6836,69.6807 75.35,69.6807 75.8684,70.199 75.8684,70.8655 75.8684,71.5319 75.35,72.0502 74.6836,72.0502 Z M 74.6836,68.7921 C 74.0171,68.7921 73.4988,68.2737 73.4988,67.6073 73.4988,66.9408 74.0171,66.4225 74.6836,66.4225 75.35,66.4225 75.8684,66.9408 75.8684,67.6073 75.8684,68.2737 75.35,68.7921 74.6836,68.7921 Z M 74.6836,59.0175 C 74.0171,59.0175 73.4988,58.4992 73.4988,57.8327 73.4988,57.1663 74.0171,56.6479 74.6836,56.6479 75.35,56.6479 75.8684,57.1663 75.8684,57.8327 75.8684,58.4992 75.35,59.0175 74.6836,59.0175 Z M 74.6836,55.7593 C 74.0171,55.7593 73.4988,55.241 73.4988,54.5745 73.4988,53.9081 74.0171,53.3898 74.6836,53.3898 75.35,53.3898 75.8684,53.9081 75.8684,54.5745 75.8684,55.241 75.35,55.7593 74.6836,55.7593 Z M 74.6836,52.5752 C 74.0171,52.5752 73.4988,52.0569 73.4988,51.3904 73.4988,50.724 74.0171,50.2056 74.6836,50.2056 75.35,50.2056 75.8684,50.724 75.8684,51.3904 75.8684,51.9828 75.35,52.5752 74.6836,52.5752 Z M 74.6836,49.317 C 74.0171,49.317 73.4988,48.7987 73.4988,48.1322 73.4988,47.4658 74.0171,46.9474 74.6836,46.9474 75.35,46.9474 75.8684,47.4658 75.8684,48.1322 75.8684,48.7987 75.35,49.317 74.6836,49.317 Z M 74.6836,42.8007 C 74.0171,42.8007 73.4988,42.2823 73.4988,41.6159 73.4988,40.9494 74.0171,40.4311 74.6836,40.4311 75.35,40.4311 75.8684,40.9494 75.8684,41.6159 75.8684,42.2823 75.35,42.8007 74.6836,42.8007 Z M 77.8677,81.7507 C 77.2012,81.7507 76.6829,81.2324 76.6829,80.566 76.6829,79.8995 77.2012,79.3812 77.8677,79.3812 78.5341,79.3812 79.0525,79.8995 79.0525,80.566 79.0525,81.2324 78.5341,81.7507 77.8677,81.7507 Z M 77.8677,78.5666 C 77.2012,78.5666 76.6829,78.0483 76.6829,77.3818 76.6829,76.7154 77.2012,76.197 77.8677,76.197 78.5341,76.197 79.0525,76.7154 79.0525,77.3818 79.0525,77.9742 78.5341,78.5666 77.8677,78.5666 Z M 77.8677,75.3084 C 77.2012,75.3084 76.6829,74.7901 76.6829,74.1236 76.6829,73.4572 77.2012,72.9388 77.8677,72.9388 78.5341,72.9388 79.0525,73.4572 79.0525,74.1236 79.0525,74.716 78.5341,75.3084 77.8677,75.3084 Z M 77.8677,72.0502 C 77.2012,72.0502 76.6829,71.5319 76.6829,70.8655 76.6829,70.199 77.2012,69.6807 77.8677,69.6807 78.5341,69.6807 79.0525,70.199 79.0525,70.8655 79.0525,71.5319 78.5341,72.0502 77.8677,72.0502 Z M 77.8677,68.7921 C 77.2012,68.7921 76.6829,68.2737 76.6829,67.6073 76.6829,66.9408 77.2012,66.4225 77.8677,66.4225 78.5341,66.4225 79.0525,66.9408 79.0525,67.6073 79.0525,68.2737 78.5341,68.7921 77.8677,68.7921 Z M 77.8677,49.317 C 77.2012,49.317 76.6829,48.7987 76.6829,48.1322 76.6829,47.4658 77.2012,46.9474 77.8677,46.9474 78.5341,46.9474 79.0525,47.4658 79.0525,48.1322 79.0525,48.7987 78.5341,49.317 77.8677,49.317 Z M 77.8677,46.0588 C 77.2012,46.0588 76.6829,45.5405 76.6829,44.874 76.6829,44.2076 77.2012,43.6893 77.8677,43.6893 78.5341,43.6893 79.0525,44.2076 79.0525,44.874 79.0525,45.5405 78.5341,46.0588 77.8677,46.0588 Z M 81.1259,75.3084 C 80.4594,75.3084 79.9411,74.7901 79.9411,74.1236 79.9411,73.4572 80.4594,72.9388 81.1259,72.9388 81.7923,72.9388 82.3107,73.4572 82.3107,74.1236 82.2366,74.716 81.7183,75.3084 81.1259,75.3084 Z M 81.1259,72.0502 C 80.4594,72.0502 79.9411,71.5319 79.9411,70.8655 79.9411,70.199 80.4594,69.6807 81.1259,69.6807 81.7923,69.6807 82.3107,70.199 82.3107,70.8655 82.3107,71.5319 81.7183,72.0502 81.1259,72.0502 Z M 87.4941,72.0502 C 86.8277,72.0502 86.3093,71.5319 86.3093,70.8655 86.3093,70.199 86.8277,69.6807 87.4941,69.6807 88.1606,69.6807 88.6789,70.199 88.6789,70.8655 88.6789,71.5319 88.1606,72.0502 87.4941,72.0502 Z M 87.4941,68.7921 C 86.8277,68.7921 86.3093,68.2737 86.3093,67.6073 86.3093,66.9408 86.8277,66.4225 87.4941,66.4225 88.1606,66.4225 88.6789,66.9408 88.6789,67.6073 88.6789,68.2737 88.1606,68.7921 87.4941,68.7921 Z M 90.6783,72.0502 C 90.0118,72.0502 89.4935,71.5319 89.4935,70.8655 89.4935,70.199 90.0118,69.6807 90.6783,69.6807 91.3447,69.6807 91.8631,70.199 91.8631,70.8655 91.8631,71.5319 91.3447,72.0502 90.6783,72.0502 Z M 90.6783,68.7921 C 90.0118,68.7921 89.4935,68.2737 89.4935,67.6073 89.4935,66.9408 90.0118,66.4225 90.6783,66.4225 91.3447,66.4225 91.8631,66.9408 91.8631,67.6073 91.8631,68.2737 91.3447,68.7921 90.6783,68.7921 Z M 90.6783,65.5339 C 90.0118,65.5339 89.4935,65.0155 89.4935,64.3491 89.4935,63.6826 90.0118,63.1643 90.6783,63.1643 91.3447,63.1643 91.8631,63.6826 91.8631,64.3491 91.8631,65.0155 91.3447,65.5339 90.6783,65.5339 Z M 90.6783,59.0175 C 90.0118,59.0175 89.4935,58.4992 89.4935,57.8327 89.4935,57.1663 90.0118,56.6479 90.6783,56.6479 91.3447,56.6479 91.8631,57.1663 91.8631,57.8327 91.8631,58.4992 91.3447,59.0175 90.6783,59.0175 Z" />
		<path style="fill:#f8a06e;" d="M 121.557,77.3078 C 121.557,77.0116 121.705,76.7154 121.8531,76.5673 L 121.8531,71.606 C 121.705,71.3838 121.557,71.1617 121.557,70.8655 121.557,70.5693 121.705,70.2731 121.8531,70.125 L 121.8531,61.9055 C 121.705,61.6833 121.557,61.4612 121.557,61.165 121.557,60.8688 121.705,60.5726 121.8531,60.4245 L 121.8531,58.7213 C 121.705,58.4992 121.557,58.277 121.557,57.9808 121.557,57.6846 121.705,57.3884 121.8531,57.2403 L 121.8531,55.5372 C 121.705,55.315 121.557,55.0929 121.557,54.7967 121.557,54.5005 121.705,54.2043 121.8531,54.0562 L 121.8531,52.3531 C 121.705,52.1309 121.557,51.9088 121.557,51.6126 121.557,51.3164 121.705,51.0202 121.8531,50.8721 L 121.8531,48.8727 C 121.705,48.6506 121.557,48.4284 121.557,48.1322 121.557,47.836 121.705,47.5398 121.8531,47.3917 L 121.8531,45.6886 C 121.705,45.4664 121.557,45.2443 121.557,44.9481 121.557,44.6519 121.705,44.3557 121.8531,44.2076 L 121.8531,17.1795 118.2247,20.956 C 117.9285,27.1762 115.4849,33.0261 111.19,37.4691 L 110.2274,38.5058 110.2274,38.5058 101.1933,48.0582 98.4535,50.9461 94.3067,55.241 94.3067,56.796 C 94.751,56.9441 95.0472,57.3884 95.0472,57.9068 95.0472,58.4251 94.751,58.8694 94.3067,59.0175 L 94.3067,63.3124 C 94.751,63.4605 95.0472,63.9048 95.0472,64.4231 95.0472,64.9415 94.751,65.3858 94.3067,65.5339 L 94.3067,66.5706 C 94.751,66.7187 95.0472,67.163 95.0472,67.6813 95.0472,68.1997 94.751,68.644 94.3067,68.7921 L 94.3067,69.8288 C 94.751,69.9769 95.0472,70.4212 95.0472,70.9395 95.0472,71.4579 94.751,71.9021 94.3067,72.0502 L 94.3067,73.0869 C 94.751,73.235 95.0472,73.6793 95.0472,74.1977 95.0472,74.716 94.751,75.1603 94.3067,75.3084 L 94.3067,111.0744 121.8531,82.195 121.8531,78.1223 C 121.705,77.9002 121.557,77.678 121.557,77.3078 Z M 97.1206,81.7507 C 96.4541,81.7507 95.9358,81.2324 95.9358,80.566 95.9358,79.8995 96.4541,79.3812 97.1206,79.3812 97.787,79.3812 98.3054,79.8995 98.3054,80.566 98.3054,81.2324 97.787,81.7507 97.1206,81.7507 Z M 97.1206,78.5666 C 96.4541,78.5666 95.9358,78.0483 95.9358,77.3818 95.9358,76.7154 96.4541,76.197 97.1206,76.197 97.787,76.197 98.3054,76.7154 98.3054,77.3818 98.3054,77.9742 97.787,78.5666 97.1206,78.5666 Z M 97.1206,75.3084 C 96.4541,75.3084 95.9358,74.7901 95.9358,74.1236 95.9358,73.4572 96.4541,72.9388 97.1206,72.9388 97.787,72.9388 98.3054,73.4572 98.3054,74.1236 98.3054,74.716 97.787,75.3084 97.1206,75.3084 Z M 97.1206,72.0502 C 96.4541,72.0502 95.9358,71.5319 95.9358,70.8655 95.9358,70.199 96.4541,69.6807 97.1206,69.6807 97.787,69.6807 98.3054,70.199 98.3054,70.8655 98.3054,71.5319 97.787,72.0502 97.1206,72.0502 Z M 97.1206,68.7921 C 96.4541,68.7921 95.9358,68.2737 95.9358,67.6073 95.9358,66.9408 96.4541,66.4225 97.1206,66.4225 97.787,66.4225 98.3054,66.9408 98.3054,67.6073 98.3054,68.2737 97.787,68.7921 97.1206,68.7921 Z M 97.1206,65.5339 C 96.4541,65.5339 95.9358,65.0155 95.9358,64.3491 95.9358,63.6826 96.4541,63.1643 97.1206,63.1643 97.787,63.1643 98.3054,63.6826 98.3054,64.3491 98.3054,65.0155 97.787,65.5339 97.1206,65.5339 Z M 100.3047,78.5666 C 99.6383,78.5666 99.1199,78.0483 99.1199,77.3818 99.1199,76.7154 99.6383,76.197 100.3047,76.197 100.9712,76.197 101.4895,76.7154 101.4895,77.3818 101.4895,77.9742 100.9712,78.5666 100.3047,78.5666 Z M 100.3047,75.3084 C 99.6383,75.3084 99.1199,74.7901 99.1199,74.1236 99.1199,73.4572 99.6383,72.9388 100.3047,72.9388 100.9712,72.9388 101.4895,73.4572 101.4895,74.1236 101.4895,74.716 100.9712,75.3084 100.3047,75.3084 Z M 100.3047,72.0502 C 99.6383,72.0502 99.1199,71.5319 99.1199,70.8655 99.1199,70.199 99.6383,69.6807 100.3047,69.6807 100.9712,69.6807 101.4895,70.199 101.4895,70.8655 101.4895,71.5319 100.9712,72.0502 100.3047,72.0502 Z M 100.3047,68.7921 C 99.6383,68.7921 99.1199,68.2737 99.1199,67.6073 99.1199,66.9408 99.6383,66.4225 100.3047,66.4225 100.9712,66.4225 101.4895,66.9408 101.4895,67.6073 101.4895,68.2737 100.9712,68.7921 100.3047,68.7921 Z M 100.3047,65.5339 C 99.6383,65.5339 99.1199,65.0155 99.1199,64.3491 99.1199,63.6826 99.6383,63.1643 100.3047,63.1643 100.9712,63.1643 101.4895,63.6826 101.4895,64.3491 101.4895,65.0155 100.9712,65.5339 100.3047,65.5339 Z M 100.3047,62.2757 C 99.6383,62.2757 99.1199,61.7574 99.1199,61.0909 99.1199,60.4245 99.6383,59.9061 100.3047,59.9061 100.9712,59.9061 101.4895,60.4245 101.4895,61.0909 101.4895,61.7574 100.9712,62.2757 100.3047,62.2757 Z M 100.3047,59.0175 C 99.6383,59.0175 99.1199,58.4992 99.1199,57.8327 99.1199,57.1663 99.6383,56.6479 100.3047,56.6479 100.9712,56.6479 101.4895,57.1663 101.4895,57.8327 101.4895,58.4992 100.9712,59.0175 100.3047,59.0175 Z M 100.3047,55.7593 C 99.6383,55.7593 99.1199,55.241 99.1199,54.5745 99.1199,53.9081 99.6383,53.3898 100.3047,53.3898 100.9712,53.3898 101.4895,53.9081 101.4895,54.5745 101.4895,55.241 100.9712,55.7593 100.3047,55.7593 Z M 103.4889,65.5339 C 102.8224,65.5339 102.3041,65.0155 102.3041,64.3491 102.3041,63.6826 102.8224,63.1643 103.4889,63.1643 104.1553,63.1643 104.6736,63.6826 104.6736,64.3491 104.6736,65.0155 104.1553,65.5339 103.4889,65.5339 Z M 103.4889,62.2757 C 102.8224,62.2757 102.3041,61.7574 102.3041,61.0909 102.3041,60.4245 102.8224,59.9061 103.4889,59.9061 104.1553,59.9061 104.6736,60.4245 104.6736,61.0909 104.6736,61.7574 104.1553,62.2757 103.4889,62.2757 Z M 103.4889,59.0175 C 102.8224,59.0175 102.3041,58.4992 102.3041,57.8327 102.3041,57.1663 102.8224,56.6479 103.4889,56.6479 104.1553,56.6479 104.6736,57.1663 104.6736,57.8327 104.6736,58.4992 104.1553,59.0175 103.4889,59.0175 Z M 103.4889,55.7593 C 102.8224,55.7593 102.3041,55.241 102.3041,54.5745 102.3041,53.9081 102.8224,53.3898 103.4889,53.3898 104.1553,53.3898 104.6736,53.9081 104.6736,54.5745 104.6736,55.241 104.1553,55.7593 103.4889,55.7593 Z M 103.4889,52.5752 C 102.8224,52.5752 102.3041,52.0569 102.3041,51.3904 102.3041,50.724 102.8224,50.2056 103.4889,50.2056 104.1553,50.2056 104.6736,50.724 104.6736,51.3904 104.6736,51.9828 104.1553,52.5752 103.4889,52.5752 Z M 106.747,62.2757 C 106.0806,62.2757 105.5622,61.7574 105.5622,61.0909 105.5622,60.4245 106.0806,59.9061 106.747,59.9061 107.4135,59.9061 107.9318,60.4245 107.9318,61.0909 107.9318,61.7574 107.3394,62.2757 106.747,62.2757 Z M 106.747,59.0175 C 106.0806,59.0175 105.5622,58.4992 105.5622,57.8327 105.5622,57.1663 106.0806,56.6479 106.747,56.6479 107.4135,56.6479 107.9318,57.1663 107.9318,57.8327 107.9318,58.4992 107.3394,59.0175 106.747,59.0175 Z M 106.747,55.7593 C 106.0806,55.7593 105.5622,55.241 105.5622,54.5745 105.5622,53.9081 106.0806,53.3898 106.747,53.3898 107.4135,53.3898 107.9318,53.9081 107.9318,54.5745 107.9318,55.241 107.3394,55.7593 106.747,55.7593 Z M 106.747,52.5752 C 106.0806,52.5752 105.5622,52.0569 105.5622,51.3904 105.5622,50.724 106.0806,50.2056 106.747,50.2056 107.4135,50.2056 107.9318,50.724 107.9318,51.3904 107.9318,51.9828 107.3394,52.5752 106.747,52.5752 Z M 106.747,49.317 C 106.0806,49.317 105.5622,48.7987 105.5622,48.1322 105.5622,47.4658 106.0806,46.9474 106.747,46.9474 107.4135,46.9474 107.9318,47.4658 107.9318,48.1322 107.9318,48.7987 107.3394,49.317 106.747,49.317 Z M 109.9312,62.2757 C 109.2647,62.2757 108.7464,61.7574 108.7464,61.0909 108.7464,60.4245 109.2647,59.9061 109.9312,59.9061 110.5976,59.9061 111.116,60.4245 111.116,61.0909 111.116,61.7574 110.5976,62.2757 109.9312,62.2757 Z M 109.9312,59.0175 C 109.2647,59.0175 108.7464,58.4992 108.7464,57.8327 108.7464,57.1663 109.2647,56.6479 109.9312,56.6479 110.5976,56.6479 111.116,57.1663 111.116,57.8327 111.116,58.4992 110.5976,59.0175 109.9312,59.0175 Z M 109.9312,55.7593 C 109.2647,55.7593 108.7464,55.241 108.7464,54.5745 108.7464,53.9081 109.2647,53.3898 109.9312,53.3898 110.5976,53.3898 111.116,53.9081 111.116,54.5745 111.116,55.241 110.5976,55.7593 109.9312,55.7593 Z M 109.9312,52.5752 C 109.2647,52.5752 108.7464,52.0569 108.7464,51.3904 108.7464,50.724 109.2647,50.2056 109.9312,50.2056 110.5976,50.2056 111.116,50.724 111.116,51.3904 111.116,51.9828 110.5976,52.5752 109.9312,52.5752 Z M 109.9312,49.317 C 109.2647,49.317 108.7464,48.7987 108.7464,48.1322 108.7464,47.4658 109.2647,46.9474 109.9312,46.9474 110.5976,46.9474 111.116,47.4658 111.116,48.1322 111.116,48.7987 110.5976,49.317 109.9312,49.317 Z M 109.9312,46.0588 C 109.2647,46.0588 108.7464,45.5405 108.7464,44.874 108.7464,44.2076 109.2647,43.6893 109.9312,43.6893 110.5976,43.6893 111.116,44.2076 111.116,44.874 111.116,45.5405 110.5976,46.0588 109.9312,46.0588 Z M 113.1153,65.5339 C 112.4489,65.5339 111.9305,65.0155 111.9305,64.3491 111.9305,63.6826 112.4489,63.1643 113.1153,63.1643 113.7817,63.1643 114.3001,63.6826 114.3001,64.3491 114.3001,65.0155 113.7817,65.5339 113.1153,65.5339 Z M 113.1153,62.2757 C 112.4489,62.2757 111.9305,61.7574 111.9305,61.0909 111.9305,60.4245 112.4489,59.9061 113.1153,59.9061 113.7817,59.9061 114.3001,60.4245 114.3001,61.0909 114.3001,61.7574 113.7817,62.2757 113.1153,62.2757 Z M 113.1153,59.0175 C 112.4489,59.0175 111.9305,58.4992 111.9305,57.8327 111.9305,57.1663 112.4489,56.6479 113.1153,56.6479 113.7817,56.6479 114.3001,57.1663 114.3001,57.8327 114.3001,58.4992 113.7817,59.0175 113.1153,59.0175 Z M 113.1153,55.7593 C 112.4489,55.7593 111.9305,55.241 111.9305,54.5745 111.9305,53.9081 112.4489,53.3898 113.1153,53.3898 113.7817,53.3898 114.3001,53.9081 114.3001,54.5745 114.3001,55.241 113.7817,55.7593 113.1153,55.7593 Z M 113.1153,52.5752 C 112.4489,52.5752 111.9305,52.0569 111.9305,51.3904 111.9305,50.724 112.4489,50.2056 113.1153,50.2056 113.7817,50.2056 114.3001,50.724 114.3001,51.3904 114.3001,51.9828 113.7817,52.5752 113.1153,52.5752 Z M 113.1153,49.317 C 112.4489,49.317 111.9305,48.7987 111.9305,48.1322 111.9305,47.4658 112.4489,46.9474 113.1153,46.9474 113.7817,46.9474 114.3001,47.4658 114.3001,48.1322 114.3001,48.7987 113.7817,49.317 113.1153,49.317 Z M 113.1153,46.0588 C 112.4489,46.0588 111.9305,45.5405 111.9305,44.874 111.9305,44.2076 112.4489,43.6893 113.1153,43.6893 113.7817,43.6893 114.3001,44.2076 114.3001,44.874 114.3001,45.5405 113.7817,46.0588 113.1153,46.0588 Z M 113.1153,42.8007 C 112.4489,42.8007 111.9305,42.2823 111.9305,41.6159 111.9305,40.9494 112.4489,40.4311 113.1153,40.4311 113.7817,40.4311 114.3001,40.9494 114.3001,41.6159 114.3001,42.2823 113.7817,42.8007 113.1153,42.8007 Z M 116.3735,62.2757 C 115.707,62.2757 115.1887,61.7574 115.1887,61.0909 115.1887,60.4245 115.707,59.9061 116.3735,59.9061 117.0399,59.9061 117.5583,60.4245 117.5583,61.0909 117.4842,61.7574 116.9659,62.2757 116.3735,62.2757 Z M 116.3735,59.0175 C 115.707,59.0175 115.1887,58.4992 115.1887,57.8327 115.1887,57.1663 115.707,56.6479 116.3735,56.6479 117.0399,56.6479 117.5583,57.1663 117.5583,57.8327 117.4842,58.4992 116.9659,59.0175 116.3735,59.0175 Z M 116.3735,55.7593 C 115.707,55.7593 115.1887,55.241 115.1887,54.5745 115.1887,53.9081 115.707,53.3898 116.3735,53.3898 117.0399,53.3898 117.5583,53.9081 117.5583,54.5745 117.4842,55.241 116.9659,55.7593 116.3735,55.7593 Z M 116.3735,52.5752 C 115.707,52.5752 115.1887,52.0569 115.1887,51.3904 115.1887,50.724 115.707,50.2056 116.3735,50.2056 117.0399,50.2056 117.5583,50.724 117.5583,51.3904 117.4842,51.9828 116.9659,52.5752 116.3735,52.5752 Z M 116.3735,49.317 C 115.707,49.317 115.1887,48.7987 115.1887,48.1322 115.1887,47.4658 115.707,46.9474 116.3735,46.9474 117.0399,46.9474 117.5583,47.4658 117.5583,48.1322 117.5583,48.7987 116.9659,49.317 116.3735,49.317 Z M 116.3735,46.0588 C 115.707,46.0588 115.1887,45.5405 115.1887,44.874 115.1887,44.2076 115.707,43.6893 116.3735,43.6893 117.0399,43.6893 117.5583,44.2076 117.5583,44.874 117.4842,45.5405 116.9659,46.0588 116.3735,46.0588 Z M 116.3735,42.8007 C 115.707,42.8007 115.1887,42.2823 115.1887,41.6159 115.1887,40.9494 115.707,40.4311 116.3735,40.4311 117.0399,40.4311 117.5583,40.9494 117.5583,41.6159 117.4842,42.2823 116.9659,42.8007 116.3735,42.8007 Z M 119.5576,68.7921 C 118.8912,68.7921 118.3728,68.2737 118.3728,67.6073 118.3728,66.9408 118.8912,66.4225 119.5576,66.4225 120.2241,66.4225 120.7424,66.9408 120.7424,67.6073 120.7424,68.2737 120.2241,68.7921 119.5576,68.7921 Z M 119.5576,65.5339 C 118.8912,65.5339 118.3728,65.0155 118.3728,64.3491 118.3728,63.6826 118.8912,63.1643 119.5576,63.1643 120.2241,63.1643 120.7424,63.6826 120.7424,64.3491 120.7424,65.0155 120.2241,65.5339 119.5576,65.5339 Z M 119.5576,62.2757 C 118.8912,62.2757 118.3728,61.7574 118.3728,61.0909 118.3728,60.4245 118.8912,59.9061 119.5576,59.9061 120.2241,59.9061 120.7424,60.4245 120.7424,61.0909 120.7424,61.7574 120.2241,62.2757 119.5576,62.2757 Z M 119.5576,59.0175 C 118.8912,59.0175 118.3728,58.4992 118.3728,57.8327 118.3728,57.1663 118.8912,56.6479 119.5576,56.6479 120.2241,56.6479 120.7424,57.1663 120.7424,57.8327 120.7424,58.4992 120.2241,59.0175 119.5576,59.0175 Z M 119.5576,55.7593 C 118.8912,55.7593 118.3728,55.241 118.3728,54.5745 118.3728,53.9081 118.8912,53.3898 119.5576,53.3898 120.2241,53.3898 120.7424,53.9081 120.7424,54.5745 120.7424,55.241 120.2241,55.7593 119.5576,55.7593 Z M 119.5576,52.5752 C 118.8912,52.5752 118.3728,52.0569 118.3728,51.3904 118.3728,50.724 118.8912,50.2056 119.5576,50.2056 120.2241,50.2056 120.7424,50.724 120.7424,51.3904 120.7424,51.9828 120.2241,52.5752 119.5576,52.5752 Z M 119.5576,49.317 C 118.8912,49.317 118.3728,48.7987 118.3728,48.1322 118.3728,47.4658 118.8912,46.9474 119.5576,46.9474 120.2241,46.9474 120.7424,47.4658 120.7424,48.1322 120.7424,48.7987 120.2241,49.317 119.5576,49.317 Z M 119.5576,46.0588 C 118.8912,46.0588 118.3728,45.5405 118.3728,44.874 118.3728,44.2076 118.8912,43.6893 119.5576,43.6893 120.2241,43.6893 120.7424,44.2076 120.7424,44.874 120.7424,45.5405 120.2241,46.0588 119.5576,46.0588 Z M 119.5576,42.8007 C 118.8912,42.8007 118.3728,42.2823 118.3728,41.6159 118.3728,40.9494 118.8912,40.4311 119.5576,40.4311 120.2241,40.4311 120.7424,40.9494 120.7424,41.6159 120.7424,42.2823 120.2241,42.8007 119.5576,42.8007 Z M 119.5576,39.5425 C 118.8912,39.5425 118.3728,39.0241 118.3728,38.3577 118.3728,37.6912 118.8912,37.1729 119.5576,37.1729 120.2241,37.1729 120.7424,37.6912 120.7424,38.3577 120.7424,39.0241 120.2241,39.5425 119.5576,39.5425 Z" />
		<path style="fill:#ff4013;" d="M 140.2915,34.1369 L 121.8531,17.1055 121.8531,44.0595 C 122.0753,43.8374 122.3715,43.6152 122.7417,43.6152 123.4082,43.6152 123.9265,44.1336 123.9265,44.8 123.9265,45.4664 123.4082,45.9848 122.7417,45.9848 122.3715,45.9848 122.0753,45.8367 121.8531,45.5405 L 121.8531,47.2436 C 122.0753,47.0215 122.3715,46.7993 122.7417,46.7993 123.4082,46.7993 123.9265,47.3177 123.9265,47.9841 123.9265,48.6506 123.4082,49.1689 122.7417,49.1689 122.3715,49.1689 122.0753,49.0208 121.8531,48.7246 L 121.8531,50.4278 C 122.0753,50.2056 122.3715,49.9835 122.7417,49.9835 123.4082,49.9835 123.9265,50.5018 123.9265,51.1683 123.9265,51.8347 123.4082,52.3531 122.7417,52.3531 122.3715,52.3531 122.0753,52.205 121.8531,51.9088 L 121.8531,53.6119 C 122.0753,53.3898 122.3715,53.1676 122.7417,53.1676 123.4082,53.1676 123.9265,53.686 123.9265,54.3524 123.9265,55.0188 123.4082,55.5372 122.7417,55.5372 122.3715,55.5372 122.0753,55.3891 121.8531,55.0929 L 121.8531,56.796 C 122.0753,56.5739 122.3715,56.3517 122.7417,56.3517 123.4082,56.3517 123.9265,56.8701 123.9265,57.5365 123.9265,58.203 123.4082,58.7213 122.7417,58.7213 122.3715,58.7213 122.0753,58.5732 121.8531,58.277 L 121.8531,59.9802 C 122.0753,59.758 122.3715,59.5359 122.7417,59.5359 123.4082,59.5359 123.9265,60.0542 123.9265,60.7207 123.9265,61.3871 123.4082,61.9055 122.7417,61.9055 122.3715,61.9055 122.0753,61.7574 121.8531,61.4612 L 121.8531,69.6807 C 122.0753,69.4585 122.3715,69.2364 122.7417,69.2364 123.4082,69.2364 123.9265,69.7547 123.9265,70.4212 123.9265,71.0876 123.4082,71.606 122.7417,71.606 122.3715,71.606 122.0753,71.4579 121.8531,71.1617 L 121.8531,76.123 C 122.0753,75.9008 122.3715,75.6787 122.7417,75.6787 123.4082,75.6787 123.9265,76.197 123.9265,76.8635 123.9265,77.5299 123.4082,78.0483 122.7417,78.0483 122.3715,78.0483 122.0753,77.9002 121.8531,77.604 L 121.8531,81.6767 149.3996,110.556 140.2915,34.1369 Z M 125.9259,78.5666 C 125.2594,78.5666 124.7411,78.0483 124.7411,77.3818 124.7411,76.7154 125.2594,76.197 125.9259,76.197 126.5923,76.197 127.1107,76.7154 127.1107,77.3818 127.1107,77.9742 126.5923,78.5666 125.9259,78.5666 Z M 125.9259,75.3084 C 125.2594,75.3084 124.7411,74.7901 124.7411,74.1236 124.7411,73.4572 125.2594,72.9388 125.9259,72.9388 126.5923,72.9388 127.1107,73.4572 127.1107,74.1236 127.1107,74.716 126.5923,75.3084 125.9259,75.3084 Z M 125.9259,55.7593 C 125.2594,55.7593 124.7411,55.241 124.7411,54.5745 124.7411,53.9081 125.2594,53.3898 125.9259,53.3898 126.5923,53.3898 127.1107,53.9081 127.1107,54.5745 127.1107,55.241 126.5923,55.7593 125.9259,55.7593 Z M 125.9259,52.5752 C 125.2594,52.5752 124.7411,52.0569 124.7411,51.3904 124.7411,50.724 125.2594,50.2056 125.9259,50.2056 126.5923,50.2056 127.1107,50.724 127.1107,51.3904 127.1107,51.9828 126.5923,52.5752 125.9259,52.5752 Z M 125.9259,49.317 C 125.2594,49.317 124.7411,48.7987 124.7411,48.1322 124.7411,47.4658 125.2594,46.9474 125.9259,46.9474 126.5923,46.9474 127.1107,47.4658 127.1107,48.1322 127.1107,48.7987 126.5923,49.317 125.9259,49.317 Z M 125.9259,46.0588 C 125.2594,46.0588 124.7411,45.5405 124.7411,44.874 124.7411,44.2076 125.2594,43.6893 125.9259,43.6893 126.5923,43.6893 127.1107,44.2076 127.1107,44.874 127.1107,45.5405 126.5923,46.0588 125.9259,46.0588 Z M 129.1841,81.7507 C 128.5176,81.7507 127.9993,81.2324 127.9993,80.566 127.9993,79.8995 128.5176,79.3812 129.1841,79.3812 129.8505,79.3812 130.3689,79.8995 130.3689,80.566 130.3689,81.2324 129.7765,81.7507 129.1841,81.7507 Z M 129.1841,78.5666 C 128.5176,78.5666 127.9993,78.0483 127.9993,77.3818 127.9993,76.7154 128.5176,76.197 129.1841,76.197 129.8505,76.197 130.3689,76.7154 130.3689,77.3818 130.3689,77.9742 129.7765,78.5666 129.1841,78.5666 Z M 129.1841,75.3084 C 128.5176,75.3084 127.9993,74.7901 127.9993,74.1236 127.9993,73.4572 128.5176,72.9388 129.1841,72.9388 129.8505,72.9388 130.3689,73.4572 130.3689,74.1236 130.3689,74.716 129.7765,75.3084 129.1841,75.3084 Z M 129.1841,62.2757 C 128.5176,62.2757 127.9993,61.7574 127.9993,61.0909 127.9993,60.4245 128.5176,59.9061 129.1841,59.9061 129.8505,59.9061 130.3689,60.4245 130.3689,61.0909 130.3689,61.7574 129.7765,62.2757 129.1841,62.2757 Z M 129.1841,59.0175 C 128.5176,59.0175 127.9993,58.4992 127.9993,57.8327 127.9993,57.1663 128.5176,56.6479 129.1841,56.6479 129.8505,56.6479 130.3689,57.1663 130.3689,57.8327 130.3689,58.4992 129.7765,59.0175 129.1841,59.0175 Z M 129.1841,49.317 C 128.5176,49.317 127.9993,48.7987 127.9993,48.1322 127.9993,47.4658 128.5176,46.9474 129.1841,46.9474 129.8505,46.9474 130.3689,47.4658 130.3689,48.1322 130.3689,48.7987 129.7765,49.317 129.1841,49.317 Z M 129.1841,46.0588 C 128.5176,46.0588 127.9993,45.5405 127.9993,44.874 127.9993,44.2076 128.5176,43.6893 129.1841,43.6893 129.8505,43.6893 130.3689,44.2076 130.3689,44.874 130.3689,45.5405 129.7765,46.0588 129.1841,46.0588 Z M 132.3682,78.5666 C 131.7017,78.5666 131.1834,78.0483 131.1834,77.3818 131.1834,76.7154 131.7017,76.197 132.3682,76.197 133.0346,76.197 133.553,76.7154 133.553,77.3818 133.553,77.9742 133.0346,78.5666 132.3682,78.5666 Z M 132.3682,75.3084 C 131.7017,75.3084 131.1834,74.7901 131.1834,74.1236 131.1834,73.4572 131.7017,72.9388 132.3682,72.9388 133.0346,72.9388 133.553,73.4572 133.553,74.1236 133.553,74.716 133.0346,75.3084 132.3682,75.3084 Z M 132.3682,72.0502 C 131.7017,72.0502 131.1834,71.5319 131.1834,70.8655 131.1834,70.199 131.7017,69.6807 132.3682,69.6807 133.0346,69.6807 133.553,70.199 133.553,70.8655 133.553,71.5319 133.0346,72.0502 132.3682,72.0502 Z M 132.3682,52.5752 C 131.7017,52.5752 131.1834,52.0569 131.1834,51.3904 131.1834,50.724 131.7017,50.2056 132.3682,50.2056 133.0346,50.2056 133.553,50.724 133.553,51.3904 133.553,51.9828 133.0346,52.5752 132.3682,52.5752 Z M 132.3682,49.317 C 131.7017,49.317 131.1834,48.7987 131.1834,48.1322 131.1834,47.4658 131.7017,46.9474 132.3682,46.9474 133.0346,46.9474 133.553,47.4658 133.553,48.1322 133.553,48.7987 133.0346,49.317 132.3682,49.317 Z M 135.5523,81.7507 C 134.8859,81.7507 134.3675,81.2324 134.3675,80.566 134.3675,79.8995 134.8859,79.3812 135.5523,79.3812 136.2188,79.3812 136.7371,79.8995 136.7371,80.566 136.7371,81.2324 136.2188,81.7507 135.5523,81.7507 Z M 135.5523,49.317 C 134.8859,49.317 134.3675,48.7987 134.3675,48.1322 134.3675,47.4658 134.8859,46.9474 135.5523,46.9474 136.2188,46.9474 136.7371,47.4658 136.7371,48.1322 136.7371,48.7987 136.2188,49.317 135.5523,49.317 Z" />
		<path style="fill:url(#grad1);" d="M 91.5669,44.1336 L 91.5669,44.1336 94.3067,47.0215 97.0465,44.1336 97.0465,44.1336 107.1173,33.5445 C 110.6717,29.842 112.597,24.8807 112.597,19.6231 112.671,8.8119 104.4515,0.0 94.3067,0.0 84.1619,0.0 75.9424,8.8119 75.9424,19.5491 75.9424,24.8066 77.8677,29.7679 81.4221,33.4704 L 91.5669,44.1336 Z M 87.4941,16.5131 C 88.0865,13.9213 90.1599,11.922 92.6776,11.3296 93.196,11.1815 93.7884,11.1815 94.3067,11.1815 98.6756,11.1815 102.0819,15.1802 101.1193,19.7712 100.5269,22.363 98.4535,24.3623 95.9358,24.9547 95.4174,25.1028 94.825,25.1028 94.3067,25.1028 89.9378,25.0288 86.5315,21.0301 87.4941,16.5131 Z" />
	</g>
	<path style="fill:#ffffff;" d="M -111.392,174.2406 L -95.476,179.0148 -95.6754,180.0098 -112.5852,177.2254 -111.392,174.2406 Z" />
	<path style="fill:#fffffe;" d="M -74.9857,241.4844 C -74.9857,241.4844 -89.3096,259.9864 -88.7135,260.7808 -88.1152,261.5763 -85.1303,257.5964 -84.3359,257.0015 -83.5415,256.4054 -80.7549,256.4054 -80.7549,256.4054 -80.7549,256.4054 -74.1914,247.8496 -73.593,248.048 -72.9958,248.2485 -70.4098,250.8345 -70.4098,250.8345 -70.4098,250.8345 -77.5717,257.0015 -77.174,257.7981 -76.7751,258.5937 -75.1841,258.5937 -75.1841,258.5937 -75.1841,258.5937 -68.2216,254.0177 -67.6232,254.4144 -67.0272,254.8132 -65.0395,256.802 -65.0395,256.802 -65.0395,256.802 -70.2115,261.1796 -70.2115,261.974 -70.2115,262.7707 -63.8462,260.7808 -63.8462,260.7808 -63.8462,260.7808 -61.4586,263.7645 -62.0546,264.1645 -62.6507,264.56 -65.2378,265.7556 -65.2378,265.7556 L -64.4412,266.9488 -61.258,266.55 -60.8614,268.7382 -62.4513,269.5348 -62.4513,271.1259 -59.8664,271.3265 -59.6681,274.1108 -61.0597,273.9102 -61.0597,275.5035 -59.8664,275.7018 -60.263,278.4861 -58.6731,278.6844 C -58.6731,278.6844 -58.2731,266.55 -59.8664,260.5813 -61.4586,254.6138 -71.8014,241.881 -74.9857,241.4844" />
	<path style="fill:#ffffff;" d="M -320.7031,120.3134 C -320.7031,120.3134 -308.7658,108.9733 -305.7809,107.5806 -302.7972,106.1879 -300.0128,105.7901 -299.2173,104.9946 -298.4207,104.1991 -300.2123,100.4187 -300.8095,100.4187 -301.4056,100.4187 -307.5725,104.7951 -308.5675,106.9845 -309.5624,109.1716 -321.6969,118.7212 -321.2992,119.5179" />
	<path style="fill:#ffffff;" d="M -318.7132,142.793 L -302.7972,147.5672 -302.9966,148.5622 -319.9064,145.7778 -318.7132,142.793 Z" />
	<path style="fill:#fffffe;" d="M -282.3069,210.0368 C -282.3069,210.0368 -296.6308,228.5388 -296.0347,229.3332 -295.4364,230.1287 -292.4515,226.1488 -291.6571,225.5539 -290.8627,224.9578 -288.0761,224.9578 -288.0761,224.9578 -288.0761,224.9578 -281.5126,216.402 -280.9142,216.6004 -280.317,216.8009 -277.731,219.3869 -277.731,219.3869 -277.731,219.3869 -284.8929,225.5539 -284.4952,226.3505 -284.0963,227.1461 -282.5053,227.1461 -282.5053,227.1461 -282.5053,227.1461 -275.5428,222.5701 -274.9444,222.9668 -274.3484,223.3656 -272.3607,225.3544 -272.3607,225.3544 -272.3607,225.3544 -277.5327,229.732 -277.5327,230.5264 -277.5327,231.3231 -271.1674,229.3332 -271.1674,229.3332 -271.1674,229.3332 -268.7798,232.3169 -269.3758,232.7169 -269.9719,233.1124 -272.559,234.308 -272.559,234.308 L -271.7624,235.5012 -268.5792,235.1024 -268.1826,237.2906 -269.7725,238.0872 -269.7725,239.6783 -267.1876,239.8789 -266.9893,242.6632 -268.3809,242.4626 -268.3809,244.0559 -267.1876,244.2542 -267.5842,247.0385 -265.9943,247.2368 C -265.9943,247.2368 -265.5943,235.1024 -267.1876,229.1337 -268.7798,223.1662 -279.1226,210.4334 -282.3069,210.0368" />
	<path style="fill:#ffffff;" d="M -320.7031,120.3134 C -320.7031,120.3134 -308.7658,108.9733 -305.7809,107.5806 -302.7972,106.1879 -300.0128,105.7901 -299.2173,104.9946 -298.4207,104.1991 -300.2123,100.4187 -300.8095,100.4187 -301.4056,100.4187 -307.5725,104.7951 -308.5675,106.9845 -309.5624,109.1716 -321.6969,118.7212 -321.2992,119.5179" />
	<path style="fill:#ffffff;" d="M -318.7132,142.793 L -302.7972,147.5672 -302.9966,148.5622 -319.9064,145.7778 -318.7132,142.793 Z" />
	<path style="fill:#fffffe;" d="M -282.3069,210.0368 C -282.3069,210.0368 -296.6308,228.5388 -296.0347,229.3332 -295.4364,230.1287 -292.4515,226.1488 -291.6571,225.5539 -290.8627,224.9578 -288.0761,224.9578 -288.0761,224.9578 -288.0761,224.9578 -281.5126,216.402 -280.9142,216.6004 -280.317,216.8009 -277.731,219.3869 -277.731,219.3869 -277.731,219.3869 -284.8929,225.5539 -284.4952,226.3505 -284.0963,227.1461 -282.5053,227.1461 -282.5053,227.1461 -282.5053,227.1461 -275.5428,222.5701 -274.9444,222.9668 -274.3484,223.3656 -272.3607,225.3544 -272.3607,225.3544 -272.3607,225.3544 -277.5327,229.732 -277.5327,230.5264 -277.5327,231.3231 -271.1674,229.3332 -271.1674,229.3332 -271.1674,229.3332 -268.7798,232.3169 -269.3758,232.7169 -269.9719,233.1124 -272.559,234.308 -272.559,234.308 L -271.7624,235.5012 -268.5792,235.1024 -268.1826,237.2906 -269.7725,238.0872 -269.7725,239.6783 -267.1876,239.8789 -266.9893,242.6632 -268.3809,242.4626 -268.3809,244.0559 -267.1876,244.2542 -267.5842,247.0385 -265.9943,247.2368 C -265.9943,247.2368 -265.5943,235.1024 -267.1876,229.1337 -268.7798,223.1662 -279.1226,210.4334 -282.3069,210.0368" />
	<path style="fill:#ffffff;" d="M -320.7031,120.3134 C -320.7031,120.3134 -308.7658,108.9733 -305.7809,107.5806 -302.7972,106.1879 -300.0128,105.7901 -299.2173,104.9946 -298.4207,104.1991 -300.2123,100.4187 -300.8095,100.4187 -301.4056,100.4187 -307.5725,104.7951 -308.5675,106.9845 -309.5624,109.1716 -321.6969,118.7212 -321.2992,119.5179" />
	<path style="fill:#ffffff;" d="M -318.7132,142.793 L -302.7972,147.5672 -302.9966,148.5622 -319.9064,145.7778 -318.7132,142.793 Z" />
	<path style="fill:#fffffe;" d="M -282.3069,210.0368 C -282.3069,210.0368 -296.6308,228.5388 -296.0347,229.3332 -295.4364,230.1287 -292.4515,226.1488 -291.6571,225.5539 -290.8627,224.9578 -288.0761,224.9578 -288.0761,224.9578 -288.0761,224.9578 -281.5126,216.402 -280.9142,216.6004 -280.317,216.8009 -277.731,219.3869 -277.731,219.3869 -277.731,219.3869 -284.8929,225.5539 -284.4952,226.3505 -284.0963,227.1461 -282.5053,227.1461 -282.5053,227.1461 -282.5053,227.1461 -275.5428,222.5701 -274.9444,222.9668 -274.3484,223.3656 -272.3607,225.3544 -272.3607,225.3544 -272.3607,225.3544 -277.5327,229.732 -277.5327,230.5264 -277.5327,231.3231 -271.1674,229.3332 -271.1674,229.3332 -271.1674,229.3332 -268.7798,232.3169 -269.3758,232.7169 -269.9719,233.1124 -272.559,234.308 -272.559,234.308 L -271.7624,235.5012 -268.5792,235.1024 -268.1826,237.2906 -269.7725,238.0872 -269.7725,239.6783 -267.1876,239.8789 -266.9893,242.6632 -268.3809,242.4626 -268.3809,244.0559 -267.1876,244.2542 -267.5842,247.0385 -265.9943,247.2368 C -265.9943,247.2368 -265.5943,235.1024 -267.1876,229.1337 -268.7798,223.1662 -279.1226,210.4334 -282.3069,210.0368" />
	<path style="fill:#ffffff;" d="M -109.6384,-0.4921 C -109.6384,-0.4921 -100.7181,-8.9661 -98.4876,-10.0068 -96.2579,-11.0476 -94.1773,-11.3448 -93.5828,-11.9393 -92.9875,-12.5337 -94.3263,-15.3587 -94.7726,-15.3587 -95.218,-15.3587 -99.8264,-12.0884 -100.5699,-10.4523 -101.3133,-8.8179 -110.381,-1.6819 -110.0838,-1.0865" />
	<path style="fill:#ffffff;" d="M -108.1514,16.3062 L -96.2579,19.8738 -96.4069,20.6173 -109.0431,18.5366 -108.1514,16.3062 Z" />
	<g>
		<path style="fill:#ffffff;" d="M -5.7578,150.2146 C -5.7578,150.2146 3.9491,140.9933 6.3763,139.8608 8.8025,138.7284 11.0666,138.4049 11.7135,137.758 12.3612,137.1112 10.9044,134.0371 10.4188,134.0371 9.9341,134.0371 4.9194,137.5958 4.1103,139.3761 3.3013,141.1546 -6.5659,148.9199 -6.2425,149.5677" />
		<path style="fill:#fffffe;" d="M 20.6174,80.9291 C 20.6174,80.9291 11.9136,92.1717 12.2758,92.6544 12.6394,93.1378 14.4531,90.7195 14.9358,90.358 15.4185,89.9958 17.1118,89.9958 17.1118,89.9958 17.1118,89.9958 21.1,84.7969 21.4637,84.9175 21.8265,85.0393 23.3979,86.6107 23.3979,86.6107 23.3979,86.6107 19.046,90.358 19.2877,90.842 19.5301,91.3255 20.4968,91.3255 20.4968,91.3255 20.4968,91.3255 24.7275,88.5449 25.0912,88.7859 25.4533,89.0283 26.6611,90.2367 26.6611,90.2367 26.6611,90.2367 23.5184,92.8968 23.5184,93.3795 23.5184,93.8636 27.3862,92.6544 27.3862,92.6544 27.3862,92.6544 28.837,94.4675 28.4749,94.7105 28.1127,94.9508 26.5406,95.6773 26.5406,95.6773 L 27.0247,96.4024 28.9589,96.16 29.1999,97.4897 28.2338,97.9737 28.2338,98.9405 29.8045,99.0624 29.925,100.7543 29.0794,100.6324 29.0794,101.6006 29.8045,101.721 29.5635,103.4129 30.5296,103.5334 C 30.5296,103.5334 30.7727,96.16 29.8045,92.5332 28.837,88.9071 22.5523,81.1701 20.6174,80.9291" />
		<path style="fill:#000000;" d="M 22.2593,90.3196 C 22.2593,90.3196 21.6936,89.7592 21.1937,89.5867 20.8695,89.4751 26.5005,87.5441 28.0639,85.1684 28.1931,84.9713 28.8211,85.926 28.7431,86.9444 28.6761,87.8104 27.4108,91.9628 27.4108,91.9628 27.4108,91.9628 29.2977,92.0959 31.1632,91.5853 30.8522,92.5178 28.2768,94.6269 28.2768,94.6269 28.2768,94.6269 30.3798,97.4571 30.5087,97.65 30.6375,97.8432 30.1326,98.3796 29.8756,98.3796 29.618,98.3796 28.4543,103.471 28.4543,103.6642 28.4543,103.8571 26.187,104.4031 26.1226,104.5967 26.0582,104.7896 28.6429,105.3704 30.7023,110.646 30.7023,110.646 29.3511,114.3135 26.7127,115.0858 26.7127,115.0858 22.595,115.0214 24.0106,111.6755 24.0106,111.6755 17.5076,110.5032 17.5745,110.8138 17.6407,111.1245 21.3934,112.3461 22.5038,112.6567 22.6319,112.7126 22.5925,113.3009 22.5925,113.3009 22.5925,113.3009 18.487,114.2813 18.662,114.4331 19.1508,114.8553 22.7192,114.3182 22.8362,114.389 22.9543,114.4595 22.9349,114.5887 23.014,114.811 23.0938,115.0328 20.8512,116.2369 20.9715,116.5869 21.0921,116.9372 23.4646,115.5009 23.636,115.4987 23.8074,115.4969 24.3506,115.4898 24.3463,115.6766 24.3434,115.8637 23.3697,117.4085 23.5472,117.586 23.7247,117.7635 25.0348,116.0541 25.2123,115.965 25.3901,115.8766 25.8195,115.8651 26.0782,116.0097 26.0782,116.2985 25.9448,116.9423 26.0342,117.0088 26.4114,116.8313 26.567,116.5203 26.8777,115.7209 27.5432,115.8541 31.0966,112.7902 31.5385,110.5175 31.6294,110.4807 32.2514,113.1452 32.2514,113.1452 32.2514,113.1452 32.6285,112.3461 32.8064,111.6133 32.8776,111.3195 38.1378,111.8061 39.1029,111.8061 40.068,111.8061 42.1868,111.6598 43.577,110.5559 43.7363,110.4288 44.014,110.3372 44.5378,110.6865 43.6207,112.3912 34.84,115.3652 33.8749,115.4937 33.1323,116.2806 34.2245,117.1977 34.0932,117.6787 33.0572,118.4012 32.782,119.2521 31.3839,120.2573 30.9033,122.2673 29.9415,124.147 30.1601,124.409 38.0971,126.5771 38.7319,135.721 38.1142,138.0875 37.8856,138.5326 37.3874,138.6621 37.1967,138.7577 37.4146,139.7063 36.6206,142.4957 36.6206,142.4957 36.6206,142.4957 41.182,140.8317 44.3417,142.4935 43.178,143.318 42.8614,144.1672 42.8614,144.1672 42.8614,144.1672 40.467,143.8655 38.6961,144.2574 36.8364,144.6685 32.6278,147.7807 27.2054,148.8381 26.3248,148.74 26.1877,148.3485 26.2858,148.1525 26.3831,147.9567 27.2641,148.1525 27.4849,147.834 27.8316,147.3502 26.7352,146.8803 26.4418,147.1544 30.0241,140.558 24.4758,135.5947 23.7018,135.6244 23.1926,135.6445 23.7158,136.0199 23.6889,136.2528 18.0837,141.0862 18.078,143.5889 18.1427,143.8462 18.2068,144.1038 6.9452,142.8671 6.9452,142.8671 6.9452,142.8671 6.6318,145.1273 5.458,146.0387 4.7023,146.6248 3.9118,147.8393 3.9376,148.4777 3.9497,148.7991 3.3636,148.9748 3.3636,148.9748 3.2741,149.2385 2.9718,149.2879 2.7177,149.2292 3.4609,144.6485 3.5987,143.8462 3.657,142.7505 3.696,141.2035 2.7567,138.3064 2.6197,138.2871 2.4826,138.2674 2.4042,138.7373 2.4042,138.7373 2.4042,138.7373 2.0714,138.7956 1.9931,138.6983 2.3065,135.7815 2.6587,133.5693 2.6977,133.1392 7.6702,133.5106 9.5879,134.0199 11.7417,133.5693 12.1915,132.8454 13.0085,128.79 13.0085,128.79 L 13.5875,129.0477 14.1664,124.093 11.9153,121.9696 C 11.9153,121.9696 15.4385,125.149 21.5931,124.6909 27.5658,124.2472 30.9857,120.872 30.6303,117.897 29.7196,119.318 27.3554,122.4856 20.9221,123.3852 20.5943,123.4252 20.814,123.7867 20.5274,123.8257 17.9295,124.181 12.7559,122.56 11.2715,120.7479 9.595,118.7018 9.1814,114.5 10.6925,111.5474 10.1801,111.3914 10.2195,111.4952 10.1783,111.0325 10.1361,110.5695 12.9255,106.3691 17.0195,105.862 17.197,105.8406 17.2853,104.5967 17.2853,104.5967 17.2853,104.5967 16.1313,103.6198 15.7756,103.0423 15.4435,102.503 15.4428,100.7556 15.4428,100.7556 L 14.8431,101.2885 13.7163,99.8374 13.4003,100.1334 C 13.4003,100.1334 10.9416,97.768 10.8854,97.2638 10.6689,96.692 11.0243,92.2512 22.2593,90.3196" />
		<path style="fill:#ffffff;" d="M 17.9037,97.8605 C 17.9037,97.8605 21.6732,94.2796 22.6158,93.8398 23.5579,93.4001 24.4372,93.2744 24.6884,93.0232 24.9399,92.772 24.3742,91.5783 24.1856,91.5783 23.9974,91.5783 22.05,92.9602 21.7358,93.6516 21.4217,94.3422 17.5899,97.3578 17.7155,97.6093" />
		<path style="fill:#ffffff;" d="M 18.5321,104.959 L 23.5579,106.4666 23.495,106.7808 18.1553,105.9016 18.5321,104.959 Z" />
		<path style="fill:#fffffe;" d="M 30.0283,126.193 C 30.0283,126.193 25.5051,132.0355 25.6934,132.2863 25.8823,132.5375 26.8249,131.2808 27.0757,131.0929 27.3266,130.9047 28.2065,130.9047 28.2065,130.9047 28.2065,130.9047 30.2791,128.203 30.468,128.2656 30.6566,128.3289 31.4732,129.1455 31.4732,129.1455 31.4732,129.1455 29.2117,131.0929 29.3373,131.3445 29.4632,131.5957 29.9656,131.5957 29.9656,131.5957 29.9656,131.5957 32.1642,130.1507 32.3532,130.276 32.5414,130.4019 33.169,131.0299 33.169,131.0299 33.169,131.0299 31.5358,132.4122 31.5358,132.6631 31.5358,132.9147 33.5458,132.2863 33.5458,132.2863 33.5458,132.2863 34.2998,133.2285 34.1116,133.3548 33.9234,133.4797 33.1064,133.8572 33.1064,133.8572 L 33.358,134.234 34.3631,134.1081 34.4884,134.7991 33.9863,135.0506 33.9863,135.553 34.8026,135.6164 34.8652,136.4956 34.4258,136.4323 34.4258,136.9354 34.8026,136.998 34.6773,137.8772 35.1794,137.9398 C 35.1794,137.9398 35.3057,134.1081 34.8026,132.2233 34.2998,130.3389 31.0338,126.3182 30.0283,126.193" />
	</g>
</g>
</svg>